<?xml version="1.0" encoding="UTF-8"?>
<svg id="Vrstva_2" xmlns="http://www.w3.org/2000/svg" xmlns:xlink="http://www.w3.org/1999/xlink" viewBox="0 0 350.09 361.61" fill="#212123">
  <defs>
    <style>
      .cls-1 {
        fill: none;
      }

      .cls-2 {
        fill-rule: evenodd;
      }

      .cls-3 {
        clip-path: url(#clippath);
      }
    </style>
    <clipPath id="clippath">
      <rect class="cls-1" x="71.81" width="210" height="240"/>
    </clipPath>
  </defs>
  <g id="Vrstva_1-2" data-name="Vrstva_1">
    <path class="cls-2" d="M184.2,55.44c-1.55-.21-1.05-1.81-1.5-2.71-2.01-3.95-6.17-7.27-9.6-10.24-1.47-.26-2.66-1.18-3.9-1.81-3.67-1.86-7.85-2.83-12.6-3.91-1.55-.35-3.21-1.13-4.8-1.51-1.7-.41-3.49-.39-5.1-.91-2.13-.69-4.25-2.09-6.6-3.01-2.37-.93-5.05-1.52-7.2-2.41-3.89-1.61-5.71-4.15-11.41-3.01-1.04.21-2.59.5-3.3,1.51,1.62,1.16,5.33-1.2,6.6.6.49,1.79-2.43.28-2.7.3-.04,0-.82.54-1.8.6-2.22.15-4.1.81-5.7.6.53-1.68,2.49-1.92,3-3.61,1.26-.86,4.38-1.42,5.1-1.81,6.77-1.09,10.97,2.31,17.41,4.82,2.16.84,4.52,1.65,6.9,2.41,2.28.72,4.64,1.54,6.9,2.1,2.09.53,4.31.42,6.3.91,1.29.31,2.86,1.05,4.51,1.51,3.43.95,5.79,1.79,8.7,3.31,4.17,2.19,4.93,3.22,7.8,7.53,1.73,2.6,3.9,5.04,3,8.73Z"/>
    <path class="cls-2" d="M148.19,44.29c-5.04-1.67-9.46-3.96-13.8-6.32-.64-.14-.57.43-.6.91-2.54-1.51-7.09-3.32-11.1-2.71-1.41.21-2.03,1.38-3.3.91,1.03-3.42,8.22-2.72,10.8-1.21.93.22.58-.82,1.5-.6,2.21.29,3.11,1.9,5.41,2.1.9,1.11,1.89,2.13,3.9,2.11,1.91,2.1,6.57,1.43,7.2,4.82Z"/>
    <path class="cls-2" d="M101.38,38.57c.59.56.09,1.1,0,1.81-.72.12-.65-.55-1.5-.3.31-.7.4-1.6,1.5-1.51Z"/>
    <path class="cls-2" d="M148.79,50.32c-6.8-2.61-8.64-10.21-19.21-9.04,1.74,1.77,5.93,1.08,7.2,3.31-.41,1.24-1.99.21-2.7,0-3.93-1.16-9.82-2.97-15.3-2.41.53-2.45,4.49-1.08,6.6-1.21.65-.04,1.12-.47,1.8-.6,3.26-.64,6.95-.21,10.2,0,2.69,1.36,4.69,3.72,7.2,5.72,1.51,1.2,4.11,1.91,4.2,4.22Z"/>
    <path class="cls-2" d="M165.3,54.54c-3.3-1.45-4.69-6.29-8.41-6.33-.84-1.67-3.1-1.9-4.8-2.71v-.91c3.53.29,7.66,2.3,10.2,4.82,1.27,1.27,3.46,3.15,3,5.13Z"/>
    <path class="cls-2" d="M178.2,55.14c-2.21-.25-2.73-2.48-3.9-3.91-.23-.29-.89-.52-1.2-.91-1.38-1.73-2.82-4.14-6.3-4.22v-.6c.1-1.1,1.46-.63,1.8-.6,3.05.24,5.41,3.62,7.2,6.03,1.05,1.41,2.42,2.88,2.4,4.21Z"/>
    <path class="cls-2" d="M173.1,45.5c2.79.09,4.58,2.32,6.3,4.52,1.1,1.41,3.3,3.78,1.8,5.12-1.34-1.16-1.63-2.82-2.7-4.21-.91-1.18-2.17-2.06-3-3.31-.83-.67-2.41-.6-2.4-2.11Z"/>
    <path class="cls-2" d="M172.2,55.74c-1.8-.31-1.95-2.26-3-3.31-2.03-2.03-4.76-3.18-7.2-4.82-.51.11-.57-.23-.6-.6,5.22-.51,8.09,3.92,10.8,6.93v1.81Z"/>
    <path class="cls-2" d="M162.9,57.85c-3.98-1.33-6.38-4.24-10.51-5.42v-.91c.24-.16.49-.31.9-.3,1.71.28,2.85.97,4.5,1.8,2.16,1.1,4.53,2.13,5.1,4.82Z"/>
    <path class="cls-2" d="M135.29,53.63c4.99.47,9.78,2.56,12.9,3.92-.56.57-.03.76,0,1.51-4.51-1.09-7.76-3.46-12.9-3.92v-1.51Z"/>
    <path class="cls-2" d="M131.08,57.24c-1.19,1.52-3.71-.64-5.7-.9-3.27-.44-5.69,1.04-7.8.9.82-2.34,5.17-2.54,8.41-2.11,1.96.27,4.52,1.13,5.1,2.11Z"/>
    <path class="cls-2" d="M129.89,62.06c-3.63-.47-6.76-2.02-10.81-1.2.14-.57-.41-1.81.6-1.51,3.74-.62,8.93-.15,10.2,2.71Z"/>
    <path class="cls-2" d="M98.38,97.6c.86.4.61,1.91.3,2.71-.73-.27-.81-2.11-.3-2.71Z"/>
    <path class="cls-2" d="M206.11,111.76c1.68.93,4.84.36,5.4,2.41-2.97.02-3.3-.76-5.7-1.2-.04-.54.37-.64.3-1.21Z"/>
    <path class="cls-2" d="M168.9,127.43c-.39,1.71-1.43,2.78-3,3.31.05-.35-.07-.54-.3-.6.24-1.06,1.58-1.02,1.5-2.41.92.21,1.09-.31,1.8-.3Z"/>
    <path class="cls-2" d="M163.8,128.93c.65-.05.14,1.07.3,1.51-.18.42-1.16.04-1.2.6-1.01-.84.44-1.74.9-2.11Z"/>
    <path class="cls-2" d="M198.31,136.76c.35-.05.53.07.6.3-.94,2.78-3.66,3.76-3.9,7.23-1.42,1.09-2.43,2.58-4.2,3.31-1.05-1.66,1.41-2.39,2.4-3.01.28-1.53,1.82-1.79,1.5-3.92,1.41-1.09,2.43-2.58,3.6-3.92Z"/>
    <path class="cls-2" d="M196.2,143.39c.4,2.31-1.04,5.38-3,6.32.65-2.46,2.05-4.16,3-6.32Z"/>
    <path class="cls-2" d="M198.6,143.39c.29,0,.23.37.3.6-1.75,4.17-2.63,9.21-5.7,12.05-.67-.97.56-2.11,1.2-2.71.81-3.9,2.49-6.93,4.2-9.94Z"/>
    <path class="cls-2" d="M201.31,143.99c-.63,1.98-1.46,3.76-3.01,4.82-.61-1.16.6-2.71,1.51-3.31-.24-1.25.46-1.55,1.5-1.51Z"/>
    <path class="cls-2" d="M105.88,144.29c-.09,1.67-.94.81-1.8,1.81-1.11.89-1.11,2.9-3.01,3.01-.03-2.15,2.05-4.48,4.8-4.82Z"/>
    <path class="cls-2" d="M203.71,144.9c-.91,1.99-1.91,3.91-3.6,5.12-.58-2.13,1.95-5.24,3.6-5.12Z"/>
    <path class="cls-2" d="M112.48,145.49c.41,1.65-1.4,1.86-2.1,2.71-1.54,1.87-2.52,4.11-3.3,6.93-1.07-.64-.53-2.4-.3-3.31.7-2.85,3.32-4.97,5.1-6.63.35-.05.53.06.6.3Z"/>
    <path class="cls-2" d="M190.51,148.21c-.04,1.46-1.39,2.19-2.4,1.8.08-1.32,1.18-1.63,2.4-1.8Z"/>
    <path class="cls-2" d="M151.49,148.81c-1.18,2.69-3.74,2.15-6.3,3.32,1.2-2.01,4.02-2.4,6.3-3.32Z"/>
    <path class="cls-2" d="M203.71,149.41c-.17,1.74-1.38,2.43-2.4,3.31-.56-1.36.84-3.09,2.4-3.31Z"/>
    <path class="cls-2" d="M149.39,151.82c-.1,1.5-2.23,2.25-3.3,1.81-.05-1.76,2.1-1.3,3.3-1.81Z"/>
    <path class="cls-2" d="M197.41,152.13c-.26,1.95-.53,3.88-2.4,4.21.56-1.64.68-3.73,2.4-4.21Z"/>
    <path class="cls-2" d="M203.1,154.53c-.17,1.53-.87,2.54-2.4,2.71-.09-1.61,1.56-3.04,2.4-2.71Z"/>
    <path class="cls-2" d="M159.59,154.83c-.06,1.68-3.64,2.96-5.7,3.61.73-2.28,3.59-2.42,5.1-3.92.35-.05.53.07.6.3Z"/>
    <path class="cls-2" d="M197.71,157.85c-.04,1.86-1.19,2.63-2.41,3.31.13-1.78.66-3.15,2.41-3.31Z"/>
    <path class="cls-2" d="M218.42,158.15c-.04,1.47-.8,2.21-2.4,2.11.32-1.19,1.17-1.83,2.4-2.11Z"/>
    <path class="cls-2" d="M183,159.35c.53,1.21-1.19,1.99-1.8,2.71-.15.18.15.72,0,.91-.26.31-.89.29-1.2.6-1.07,1.1-1.97,3.63-3.6,3.02-.23-1.34.99-1.21,1.5-1.81,1.08-2.13,2.9-3.52,4.2-5.42h.9Z"/>
    <path class="cls-2" d="M203.11,160.86c.9-.31.53.67.6,1.2.54.52,1.31-1.28,2.4-1.2.22,1.13-.34,1.47-1.2,1.51-1.14,2.78-3.97,3.84-4.5,7.23-1.7-.81-1.52.5-3,.6-.18,4.1,2.05,5.77,3,8.74-5.6.6-6.56-10.74-2.4-12.65.64-.14.57.43.6.9,1.42-2.19,2.16-5.07,4.51-6.32ZM202.81,163.57c.07-.43.49-.51.6-.9-.61-.27-1.35.78-.6.9ZM198.31,168.39c.02-.19.04-.36.3-.3-.03-.37-.09-.71-.6-.6.05.35-.05.85.3.91Z"/>
    <path class="cls-2" d="M197.41,161.46c.01,1.22-.29,2.12-1.5,2.11,0-1.2.16-2.25,1.5-2.11Z"/>
    <path class="cls-2" d="M206.71,162.36c-1.2,2.3-2.23,4.78-4.2,6.32-.53-2.58,2.38-4.21,3.3-6.32h.9Z"/>
    <path class="cls-2" d="M207.91,165.07c-.24,1.35-1.43,3.06-2.7,2.41.47-1.23,1.11-2.3,2.7-2.41Z"/>
    <path class="cls-2" d="M170.4,169.9c-.16,1.08-1.14,2.48-2.4,1.51.74-.56.86-1.74,2.4-1.51Z"/>
    <path class="cls-2" d="M213.01,175.92c-1.86.52-4.65-1.44-7.2-.3-.31,1.32,1.02.99.9,2.11-2.63.95-5.08.41-6.3-1.51.41-4.73,11.75-4.42,12.6-.3Z"/>
    <path class="cls-2" d="M112.18,185.26c.57,1.23,1.41,2.2,1.5,3.92-2.11-.11-3,1.01-5.1.9-.42-.58-.79-1.21-.9-2.11-.9.01-.39,1.42-.9,1.81-1.82-1.48-3.04-3.57-3.9-6.02,1.19-.09,1.83.36,2.4.9.67-.51,1.98-2.11,2.4-.3,2.14-1.03,2.15,1.31,4.5.91Z"/>
    <path class="cls-2" d="M197.1,210.56c.26,2.16-2.15,1.66-2.1,3.61-2.63,1.68-4.8,3.81-8.7,4.21.16-1.44,1.99-1.85,3-2.41,2.65-1.46,5.05-2.98,6.9-5.42h.9Z"/>
    <path class="cls-2" d="M191.4,211.76c.67.04.13,1.28.3,1.81-3,.9-4.42,3.4-7.8,3.92-.82-1.87,1.81-2.22,3.3-2.71,1.33-1.07,2.74-2.06,4.2-3.01Z"/>
    <path class="cls-2" d="M222.61,216.88c-.41,1.64-2.29,2.84-3.3,4.22-.67.91-.79,3.15-2.4,2.41,1.39-2.72,2.5-5.72,5.7-6.63Z"/>
    <path class="cls-2" d="M223.51,218.99c-.67,1.41-1.78,2.66-2.7,3.92-.77,1.06-1.53,3.03-3.3,3.01,1.52-2.79,2.85-5.77,6-6.93Z"/>
    <path class="cls-2" d="M224.71,221.4c.29,0,.23.36.3.6-.02,1.19-.95,1.46-1.8,1.81-.74,1.31-1.76,2.49-2.7,3.61-.91,1.08-1.79,2.59-3.3,3.02.52-2.17,2.49-3.99,3.9-5.72,1.06-1.32,1.97-2.38,3.6-3.31Z"/>
    <path class="cls-2" d="M218.12,231.94c.29-1.52.99-2.62,2.4-3.02-.11,1.69-.89,2.72-2.4,3.02Z"/>
    <path class="cls-2" d="M187.8,232.54c-.44-.56-1.55-.45-1.5-1.51.61-.64,1.19.09,1.8.3.04.54-.37.64-.3,1.2Z"/>
    <g class="cls-3">
      <path class="cls-2" d="M149.99,154.53c-.48-.08-.52.29-.9.3.54,2.15,1.74,3.93,2.7,6.03,2.83,6.15,5.35,12.15,10.8,15.66-.99-2.55-3.1-7.67-.9-10.54,1.25,1.01.43,2.74.6,4.21.28,2.4,1.21,4.81,1.8,6.63.36.79,1.03-1.42,1.8-.3-.14.85-1.76,2.09-.3,2.71,1.01.11.5-1.3.9-1.81-.22-1.38-2.15-2.34-1.2-3.91.75-.4.73,1.4,1.2.3.59.42.16,1.85.6,2.41.95.15.68-.92,1.8-.6-.61-1.85,1.47-3.47,3-3.01.23,1.24-1.44.57-1.2,1.81.23,1.07.77,1.83,1.5,2.41,2.38-2.23,4.29-4.93,7.5-6.33.15,1.86-1.38,2.03-2.4,2.71.54,1.11.86,3.2,2.4,2.41-.63,3.68,3.67,4.65,4.2,8.14-2.38.1-1.89-3.34-4.2-2.41.7-1.72-.41-2.59-1.2-3.61-.27.23-.68.32-1.2.3.95,3.87,4.27,5.35,6.6,7.83.31,1.01-.93.47-1.5.6-2.28-2.13-4.55-4.27-6.3-6.93-.61.09-.8.6-1.2.91.41,1.01,1.6,2.8,2.7,2.1,1.19,1.72,1.72,4.1,4.5,4.22-1.27,1.72,2.44,1.56,1.2,3.31,1.82.23,2.72-.48,4.5-.3.65-2.37,3.66-6.03,6.3-7.83,2.7-1.83,10-3.47,14.1-3.01.96.11,2.37.14,3,1.21-.93,1.15-3.94.73-6.3.9,2.3.99,4.75.13,8.1.9v1.81c-3.97.05-10.67-.63-13.2,1.8,2.9-.44,8.65-2.11,12.9-1.2v1.51c2.16.15,4.79-.18,4.8,2.11-5.46-1.55-12.17-1.3-16.8.91,5.27-.39,14.37-1.39,17.7,2.41,2.84.16,5.54-2.22,8.4-2.71,3.69-.63,6.54.52,9.91,1.2.72.68,1.22,1.58,2.1,2.11.36-1.77-.94-1.87-1.2-3.01-1.41.02-4.16-.69-5.7-.91-3.85-.55-7.24.95-10.2.91,1.67-1.73,4.65-2.17,8.1-2.11.65.05.14-1.07.3-1.51,2.15.05,2.61,1.79,5.1,1.51-3.61-4.04-11.38-.66-15.61.9,1.4-3.11,5.45-3.57,7.51-6.02-1.94.06-4.21,2.4-6.91,2.71-.28-.59.51-1.11.9-1.51,2.11-2.1,7.13-3.95,12.6-3.61-.71-2.41-5.6.79-6-1.51-.66.35-1.72,1.86-2.7.9-1.95,1.27-4.26,3.76-7.51,2.71,1.56-1.85,4.57-2.24,6.3-3.92.59-1.61,1.28-3.13,1.5-5.12-1.05-.55-1.32.67-2.1,1.2.2.41.8-.15,1.5.3-.75,1.34-2.37,3.38-4.51,4.22-.16-1.07.49-1.32.9-1.81-.07-.43-.9-.1-.9-.6,1.47-1.81,2.69-5.23,5.41-4.82,0-.8.11-1.72-.3-2.11-1.76,1.55-2.89,3.73-5.1,4.82-.87,1.23-.08,4.13-2.4,3.92.17-3.57,1.68-7.31,0-11.14.56.13,1.81-.41,1.49.6,1.83-1.38,3.22-3.2,4.51-5.12-2.38-1.92-2.19,3.24-4.8,3.01.13-2.27,2.24-2.57,2.4-4.82-1.89.52-1.62,3.2-4.2,3.02.56-1.55,1.66-2.56,3-3.32-1.28-1.53-2.88-2.73-4.5-3.91-4.91-6.52-8.13-14.73-13.8-20.48-.67-3.89-.46-8.95,1.8-10.84-.82-1.51.67-2.26.9-3.61-.15-1.16-2.14-.46-2.4-1.51.04-1.27,2.4-.4,3-.3,1.1-.4,2.18-.83,3.3-1.2-.95-1.95-5.07-.73-5.4-3.31,1.66-.1,4.31,1.26,6.3,1.81,1.61-.9,4.46-.55,5.1-2.41h2.7c-2.74-1.52-5.65-3.1-8.7-4.52-.86-.4-2.26-.43-2.7-1.51.65-1.34,2.04.06,2.7.3,2.84,1.02,5.71,3.04,8.7,3.92.38.63.88,1.14,1.5,1.51.8,0,1.71-.11,2.1.3-1.43-2.59-4.98-3.04-6.6-5.42-1.7-1.1-5.25-.35-5.7-2.71,4.95.35,7.64,2.97,10.8,5.12-1.44-1.7-2.76-3.82-4.8-5.12-.84-.54-2.07-.69-3.01-1.21-1.14-.62-2.54-1.2-4.2-1.81-.42-.15-.64-.03-.6-.6-1.49-.21-3.24-.16-3-2.11,3.69,1.42,8.05,2.16,11.1,4.22.32-1.72-1.38-1.43-1.5-2.71-3.96-.94-5.98-3.83-9.9-4.82,1.15-.98.16-.87.6-2.11,2.43.07,4.12.89,5.7,1.81-1.54-2.47-4.31-3.7-5.7-6.33-1.63-.27-3.59-.21-3.6-2.1,3.58.42,5.89,2.12,7.8,4.21.02-2.64-3.18-4.64-4.8-6.63-.99-.31-2.15-.45-1.8-2.11,2.03-.13,2.12,1.69,3.6,2.11.64-.75-1.15-3.24-1.8-2.71-1.16-2.96-5.21-3.01-6.3-6.03,2.92.18,3.73,2.47,6,3.31.95-1.56-1.1-2.7-2.4-3.01-1.52-2.39-4.78-3.04-6-5.72,3.01.4,4.17,2.65,6.3,3.92-.04-1.71-1.92-4.06-3.9-4.82-.6-.61-.08-.8.3-1.21-1.91-2.5-3.87-4.95-6.6-6.63-.58-1.13-2.74-.66-2.4-2.71,2.51-.67,3.97,2.2,6.3,2.71,1.41,2,3.26,3.48,5.1,5.72.51.62.72,1.43,1.2,2.11.46.65,1.4.97,1.8,1.51.15.19.22.78.3.9.4.64.32.98.9,2.11.72,1.41,1.73,3.84,2.7,6.03.04.54-.37.64-.3,1.2.81.9,1.14,2.27,2.1,3.01.03,1.61.81,3.14,1.5,4.52,1.54,3.07,3.48,7.44,5.7,10.54,1.99,2.78,4.34,6.77,6.3,9.94.46.74,1.21,1.2,1.8,1.81.4,1.31.9,2.76,2.1,4.22.97,1.19,2.51,2.07,3.3,3.92.32.74.61,2.62.6,2.71-.15.84-.56,1.98-2.1,1.81.02,3.44-.84,5.98-1.8,8.44.98,2.53,2.56,4.45,4.5,6.02.74,2.88,1.41,5.81,3.9,6.93,1,2.89,2.31,6.01,2.4,9.34.06,2.04-.43,4.03-.3,6.03.04.51.53.99.6,1.51.19,1.34-.15,2.91,0,4.21.33,2.88,1.23,5.57,1.2,8.44.97,1.23,3.08,1.32,3.9,2.71,1.18-.95,3.27.08,4.51-1.81.39-.59.11-1.57.6-2.71.52-1.19,1.28-2.36,1.8-3.61,4.13-9.88,8.42-21.79,10.2-34.34.22-1.57.08-2.96.3-4.52,1.07-7.72,3.11-14.23,3.91-20.79.81-6.67,1.38-15.4,1.8-22.59.1-1.7-.43-3.51-.3-4.82.07-.71.58-.74.6-1.21.03-.88-.31-1.83-.3-2.71.04-3.36,1.04-7.02,1.2-10.54.41-8.78-.3-18.53-.3-26.81,0-2.72-.12-7.68-.6-10.84-.07-.48-.09-.59-.6-.6.56-5.72-1.04-11.78-1.2-17.78,1.45-.33,1.54,1.76,1.8,2.71.55,2.05.55,3.68.9,6.33.95,7.26,2.35,16.07,2.4,23.79.65-.86.29-3.29,0-4.22.56-.04,1.01-.2,1.2-.6-.52-6.68-1.51-14.27-1.5-21.08,1.39.47.8,2.3,1.2,3.61.41,1.33.75,1.86,1.2,3.31.77,2.46.24,5.34.6,8.13.24,1.86,1.08,5.8,1.2,8.14.07,1.52-.45,3.07-.3,4.52.28,2.73.94,7.65.6,11.15,1.78-1.6,1.04-5.53,1.2-9.04.14-2.98.28-5.94.6-8.43h1.2c-.03,3.78-.02,8.34-.6,12.35.24.3,1.05-.11,1.5.6.06,2.05-.77,4.2-.3,5.72.3.85.28-.95.9,0,.18,3.19-.8,8.22,0,11.45.85-.9-.69-2.44,1.2-2.41.15,4.95-.74,10.43-.9,15.96.04.57.99.21.9.91-.35,3.34.35,6.59.3,9.64-.04,2.09-.83,4.03-.9,6.03-.14,3.63.22,6.8-.6,10.24-.68,2.86-2.13,5.45-2.7,8.13-.5,2.34-1.12,4.24-1.8,6.03-.53,1.38-.57,3.05-1.2,4.52-1.21,2.82-3.46,6.13-3.3,10.24,2.07-2.6,2.6-6.32,3.9-9.64.28-.7.97-1.12,1.2-1.81.69-2.07.76-4.57,1.5-6.93.48-1.53,1.77-4.15,2.4-6.63.88-3.46,1.13-6.93,2.1-10.54.21-.79-.44-2.89,1.2-2.41.88.56-.13,1.97-.3,3.02-.22,1.29-.48,2.88-.6,3.91-.95,7.95-2.36,16.79-5.1,23.19,2.29-.79,2.19-4.69,3-7.53.48-1.68,1.37-3.41,1.8-5.12.4-1.58.09-4.37,2.1-4.52-1.76,9.18-4.29,17.58-7.2,25.6.2.41.8-.15,1.5.31-1.96,6.28-1.47,12.95-3.6,19.57-.33,1.04-1.17,1.98-1.5,3.02-.14.44.18,1.07,0,1.51-.9,2.21-2.16,4.47-3,6.63-1.05,2.68-2.53,5.18-2.7,6.93-.06.58.41,1.24.3,1.81-.52,2.82-2.19,6.26-3.6,8.73-1.45,2.54-3.08,5.16-5.1,6.93.06,1.87-1.76,1.85-1.8,3.61-3.01,1.99-3.74,6.29-8.4,6.63-.9.3-.53-.67-.6-1.21-2.91.41-4.3-.71-5.4-2.11-1.74,2.97-3.76,7.28-3.9,10.84-3.43,4.29-3.65,10.48-8.1,14.46-.49.44-1.35.67-2.1,1.21-1.15.82-2.09,1.48-3.6,2.41-2.85,1.74-6.16,5.27-10.8,5.72-4.79.47-10.42,1.18-16.51,1.51-3.85.2-10.08.51-14.7.3-4.25-.19-8.38-1.36-12.6-1.81-1.05-.11-2.27.14-3.3,0-5.91-.81-10.96-3.64-15.61-4.82-11.65-5.88-22.76-12.3-29.41-23.19-1.11-.3-1.22-1.58-2.4-1.81-.42-3.2-1.86-5.36-2.7-8.14-2.08.23-2.88,1.66-4.8,1.81-5.16.4-9.73-4.64-12-7.83-3.86-2.46-7.35-5.28-11.41-7.53-3.41-4.41-4.97-10.67-7.8-15.66-.26-.44-.45-.96-1.2-.91-.95-4.73-5.8-10.42-5.41-15.36.44-5.52,6.55-8.06,6.91-13.85,1.82-1.39,2.69-3.72,3.9-5.72-.96-1.43-.81-3.17-1.5-5.72-.32-1.17-.43-1.58-.6-2.71-.04-.26-.59-.52-.6-.6-.15-1.45-.26-3.76-.9-5.72-.15-.45-.47-1.64-.9-2.41-.45-.82.04-.18-.3-1.21-1.42-4.32-3.89-8.11-4.51-13.85-.07-.33-.59-.2-.6-.6-.27-2.67-.51-6.66,0-9.94.32-2.06,1.34-4.46,1.8-6.63.64-2.98,1.76-5.64,2.7-8.73,1.2-3.96,2.31-7.06,3.3-11.15,1.73-7.15,4.53-15.55,9.01-20.18,2.36-2.44,5.15-3.85,7.8-6.33,1.63-1.52,2.53-3.52,4.8-4.21.84,2.07-1.55,2.85-2.7,3.91-1.21,1.13-2.45,2.39-3.3,3.61-.92-.22-.58.83-1.5.6-2.26,2.66-4.97,4.85-6.6,8.14,1.16.62,1.35-1.96,2.7-2.11.07-1.84,1.67-2.15,2.1-3.61,2.82-.48,3.31-3.31,5.7-4.22-1.59,5.03-6.28,6.95-7.2,12.65-.42,1.15-1.76,1.56-.6,2.71,2.21-2.4,2.47-6.75,6.6-7.23-.43.98-.62,2.19-1.8,2.41-2.79,4.33-5.23,9.01-7.8,13.55.13.47.94.26.6,1.21,1.52-1.72,2.23-5.76,4.5-5.72-.23,2.39-2.88,3.58-2.1,6.03.46-.52-.1-1.1.3-2.11.43,1.72,1.48-.48,1.5-1.81,2.68-1.53,3.08-5.34,5.4-7.23.04-1.77.81-2.8,2.4-3.01-2.34,7.59-7.87,11.98-10.2,19.58-2.63,2.08-3.1,6.32-5.1,9.04-.22.93,1.04.36.6,1.51-1.24,1.95-.83,1.8-.9,4.21,2.46-1.76,2.44-5.51,3.6-8.43-.02.05,1.73-1.73,1.2-2.71,2.85-4.09,4.53-10.03,8.7-13.55.15,1.51-.36,2.59-.9,3.61-.43.8-1.39,1.82-2.1,2.41-.39,1.82-1.13,3.29-2.1,4.52.1.7.31,1.3.9,1.51.92-1.18.01-4.2,2.1-4.21,1.12,1.37-.43,2.44-.9,3.61-.54,1.35-.59,2.8-1.2,4.21-1.31,3.04-3.58,7.06-4.2,11.15,1.46-1.04,2.1-2.92,2.4-5.12.7-.2.8-1,1.5-1.21.54-3.09,3.04-5.6,4.2-8.43.68-1.67,1.1-4.64,3.3-5.12.58,2.29-1.74,3.96-2.7,6.03-.97,2.1-1.18,4.89-3,6.32-.86,3.66-3.28,5.74-4.2,9.34,1.57.27,1.2-1.41,1.5-2.41,1.19,0,1.23-1.17,1.5-2.11,1.85.52,1.21-1.85,3.3-1.8-1.58,7.07-5.77,13.05-5.1,21.39,1.21-2.9,2.45-5.77,3-9.34,2.51-1.99,1.57-7.46,4.8-8.73.06,3.28-2.33,4.08-1.8,7.83-1.82,1.39-1.72,4.7-3,6.63.25.78,1.31-.58,1.8.3-.79,2.43-.74,5.69-1.8,7.83-.1.6.06.94.6.9-.28.72-1.21.8-.9,2.11,1.76.45.89-3.23,2.1-4.21.15-.95-.92-.68-.6-1.81.89-2.04,1.13-3.91.9-5.72,1.21,0,.83,1.57.9,2.71,1.52-2.09,1.03-6.2,3.6-7.22.15,3.97-2.52,7.7-3.3,11.74-.47,1.07,1.02.18.9.9-.11,3.01-.94,5.29-.9,8.44,1.72-1.48,1.61-4.53,2.4-6.93.32-1,.83-2.63,1.8-3.02.6.59.19,1.72,0,2.41,1.46.14,1.26,1.95,1.2,3.61,1.02-.48.26-2.76,1.2-3.31,2.15.88.14,3.53-.3,5.42-.21.9-.14,2.04-.3,3.01-.41,2.38-.89,6.3-1.2,9.64.13.47.94.26.6,1.2,1.06-2.29,1.53-5.39,2.1-9.04.57-3.66.42-7.56,2.4-9.34,1.41.4-.15,2.53-.3,3.31.22.28.55.46.9.6-.23,4.17-.41,9.46-.3,13.85.02.8-.74,2.36.6,2.41.55-.65.32-2.08.9-2.71,1.65.51.67,2.75.9,4.22.22,1.42,1.07,2.48.9,3.61,1.73-.16,1.26,1.42,3.3,1.51.52,1.29.06,3.56,1.51,3.92.01,1.62-.71,2.51-2.4,2.41-.22-.82.59-.61.6-1.21-.97-.13-2.6.4-2.7-.6-3.15,1.65-5.91,3.7-8.1,6.32-.05,1.16-.65,1.76-1.8,1.81.2-3.71,3.29-4.53,4.8-6.93-1.89-.42-3.47-1.13-4.8-2.11-1.96.65-2.44,2.78-4.8,3.01.28-2.23,2.56-2.45,3.6-3.91-.37-1.14-2.15-.85-2.7-1.81-.97.54-1.72,1.29-2.1,2.41.1,1.01,1.43-.91,1.2.6-.29,1.52-1.76-.24-2.4-.3-.14-2.15,1.76-2.26,2.4-3.61-3.36-1.71-2.93,2.84-5.7,2.71.35-1.55,1.04-2.78,2.4-3.31-2.42-.31-4.49,2.31-6.6,3.31-.02-2.43,2.09-2.71,3.6-3.61-1.73-1.17-3.75.68-5.1,2.1-.92.97-1.23,3.09-2.7,2.41.09-3.02,2.83-3.39,4.2-5.12-1.05-.97-3.16,1.38-3.6,1.51-1.55.44-1.73,3.36-2.1,5.72-.71.73-.56-.45-1.5-.3-.53,2.61-.92,3.81-.3,5.72-2.3.23-1.61-1.34-1.5-3.02-1.94,1.65-1.26,5.26-1.2,7.53-1.51.31-.65-1.76-1.8-1.81-1.53,1.26,1.35,1.89,1.2,3.61-.54.18-1.4,1.57-1.5,1.2,3,7.94,8.46,16.01,11.41,25,1.2-1.58-.44-5.29.9-7.23,1.9,1.03.45,4.78.9,7.23.21,1.19.79,2.3,1.5,2.71.49-.81-.8-4.23.3-4.82.93-.23.58.82,1.5.6-.61,2.93-.34,7.3,2.7,7.53-.56-1.47-.77-3.17-.3-4.82,2.2.4.9,6.93,3.6,7.53.79-.94-1.69-4.85.6-5.42.98,2.93.74,7.09,3,8.74.68-.22.09-1.72,1.2-1.51-.1,5.4,6.46,7.48,9.9,4.22.97-.13.24-1.96,1.8-1.51,1.1-.1.91,1.09,1.2,1.81,1.72.79,2.82,2.19,4.8,2.71,1.03-.29-.8-1.73.3-2.11,1.64.06.34,3.07,2.1,3.02,0,1.73-.61,3.16.3,4.52.77,1.15,2.31.76,3,2.11-.01,1.35-1.59.05-2.1,0,.47.63.2,2,.6,2.71,1.09.2,2.18.42,3.6.3,0-.95-1.82-4.12-1.2-5.72,1.41.52,1.03,1.33,1.2,2.71,1.09.61.93,2.48,1.8,3.31,1.77.18,6.82-.99,6.6,2.11-1.76-.55-3.48-1.13-6.01-.9.25,1.76,1.16,2.85,1.8,4.21,1.28-.18,1.98.22,3,.3.91-.46-.25-1.32,0-2.11,1.09.31,1.39,1.42,1.8,2.41,1.19.11,2.88-.28,3.6.3.2,1.3-1.39.81-2.4.9.2,1.01.94,1.47,1.2,2.41,1.91-.21,2.89.51,4.8.3.13-1.38-1.96-1.66-.9-3.02,3.34,2.27,3.24,7.99,9.9,6.93.31-1.81-1.43-1.57-1.2-3.31,1.11-.66,1.66,1.43,2.1,2.41.71,1.09,1.83,1.78,2.1,3.31h2.4c-1.05-2.26-2.98-3.64-3.6-6.32,2.54,1.06,3.19,4.03,4.8,6.02,1.26.04,1.68-.55,2.7,0,.14.94-.65.96-1.51.91.98,2.33,3.17,3.45,4.8,5.12,1.31.01,2.34-.26,3.3-.6-.22-.89-1.13-1.07-1.8-1.51-.64-1.27-1.26-2.55-2.7-3.01-.18-1.43-1.04-2.18-2.1-2.71.1-1.04-1.24-1.43-.3-2.41,2.99,2.72,5.13,6.29,8.1,9.03,1.51.21,2.09-.51,3.6-.3.37-.77-.58-.76,0-2.11,1.4,1.31,2.84,2.57,4.2,3.92,1.25-.15,2.22-.58,3.3-.91-.58-1.72-2.87-1.74-3-3.92,3.85.91,5.23,6.99,9.6,5.42-.1-.81-1.19-.32-.9-2.11,1.69.77,4.2,2.57,6,.6.9.81,1.9,1.52,2.7,2.41,1.86.46,1.95-.85,3.6-.6.82-.28-.54-1.06.3-1.51.94.37,1.59,1.21,2.7.6-.21.93-.21.58,0,1.51,1.26-.24,2.71-.3,2.4-2.11,2.49.76,4.05,3.57,7.81,2.11-.35-.65-2.04.04-2.1-.91,1.2-1.69,2.64.15,3.9,0,3.55-.41,5.54-4.39,7.8-6.63,1.02.57-.51,1.06-.3,1.81,7.02-2.69,8.12-11.33,11.4-17.77-1.44,1.47-2.3,3.77-3.3,5.72-1,1.94-1.66,4.46-3.91,5.12,2.45-4.42,4.55-9.26,6.91-13.85.73-1.43,1.48-3.28,3-3.92.22.92-.31,1.09-.3,1.81,1.3-1.31,1.68-3.54,3.01-4.82-.34-1.57-1.35-2.46-2.4-3.31-1.39,4.49-4.13,9.17-6.3,13.56-.74,1.5-1.61,2.59-2.4,3.91-1.02,1.71-1.74,4.61-4.2,5.42,1.49-3.52,3.83-6.19,5.4-9.64-1.92.48-3.2,1.6-4.2,3.01-1.26-.63-2.45.25-3.9.3-.08-.76-.4-2.11.3-2.71-2.04,1.24-5.33,2.58-7.8,2.41-.51-1.18,1.6-1.1.3-2.71,1.13-.38,2.31-.7,2.7-1.81-3.37-.96-3.23,4.94-6.3,5.42.23-1.68,1.14-2.67,1.8-3.92-2.81-.31-1.9,3.11-4.2,3.31-.67-1.16.32-1.17.6-2.11-.14-.87-2.27.27-2.4-.6.45-1.99,1.96-.54,3.6-1.2.04-.56.2-1.01.6-1.2-.24-.8-1.41.67-1.51-.6.12-.98,1.47-.73,2.4-.9,1.74-2.55,3.89-3.78,7.51-5.43,2.59-1.17,4.8-1.88,7.2-1.5.9-.31.53.67.6,1.2,3.55-.95,3.83-5.19,6.9-6.63.92-.22.36,1.04,1.5.6-.14,1.57-.85,2.56-1.5,3.61,1.38.57,1.95-2.26,2.4-3.61,1.37.3,1.07.4,2.1.91-.24-4.37-2.95-6.28-6.6-7.23-1.13.68-1.34,2.27-2.1,3.31-2.16,1.26-4.57,1.15-7.2,1.81-2.58.65-4.73,2.38-7.5,2.71-2.81.34-6.13-.61-8.4.91-2.02-.45-4.77.52-6.91.9-.82-3.23,4.54-2.87,5.1-5.72-4.26.65-7.68,4.74-11.1,7.22,0,3.18-2.48,3.97-4.2,5.72-.66.68-.8,1.64-1.8,2.41-.68.53-1.72,1.05-2.4,1.2-.22.82,1.42-.21,1.2.6-.47,2.59-5.2,1.99-4.5,4.82-.69.31-1.81.19-2.4.6-.56.04-.18,1.02-.6,1.2-5.81.22-10.55-3-14.41-5.72.82,1.03,2.24,2.53,3.9,3.61,1.68,1.09,3.76,1.44,5.41,2.41-1.09,2.5-4.67-.27-6.31-1.21-1.24-.71-3.39-1.89-4.5-3.01-.32-.32-.3-.94-.6-1.2-1.73-1.55-3.66-2.73-5.4-4.52-4.27-4.38-9.72-10.98-12.91-15.96-.23-.67-1.05-.76-1.5-1.2-1.07-2.74-2.59-5.03-4.5-6.93-.6-2.01-1.54-3.68-3-4.82.28-2.15-2.6-2.52-1.5-4.52,4.07,3.65,6.2,9.04,9.3,13.55,2.16,3.15,4.63,5.9,6.6,9.04.57.13.76.65,1.5.6,3.05,5.78,8.07,9.58,12.6,13.85-.64-1.53-2.17-3.24-3.6-4.82-1.44-1.58-3.01-3.26-4.5-4.52-.6-3.01-3.34-3.88-4.2-6.63-.82-.48-1.48-1.13-2.4-1.51-2.91-3.31-5.21-7.22-8.1-10.54-.99-3.05-3.01-5.56-4.5-8.14-.79-1.35-1.59-2.58-2.4-3.92-.88-1.46-1.68-2.67-2.4-4.52-2.74-4.7-5.16-9.81-7.8-15.06-1.04-2.08-2.78-4.01-2.7-6.63,1.69-.09,1.64,1.58,2.1,2.71.24-3.46-2.96-6.07-3.3-9.94-.13-.38-.39-.62-.9-.6,0-2.15-1.21-3.39-1.8-5.42-.7-2.41-.98-5.44-1.8-7.83.31-.29.6-.59.9-.9-2.93-7.8-7.74-12.81-9.01-21.69,1.26-.16,2.03.17,2.7.6-1.94-8.1-6.85-14.81-6.6-24.1,1.67.19,1.32.74,1.2,2.41,1.55,4.76,2.54,10.1,4.5,14.45.43.16.73-1.17.9-.3,1.02-.5-.8-1.98.6-2.11-1.9-1.05-3.3-5.15-2.1-6.63-2.85-2.05-2.43-9.21-3.9-13.56.16-.54.15-1.25.6-1.51-.72-.09-.92-2.26-.3-2.71,1.48-.48.45,1.55,1.8,1.2.27-5.85-2.26-11.26-1.8-17.17-.67-1.44-1.81-2.4-1.5-4.82,1.21-.41.95.66,1.8.6-.01-2.5,1.16-8.83-.3-11.74.13-.67.53-1.07,1.2-1.21-.11-5.45-.77-8.93-.3-14.45.37.13.61.39.6.9,2.67-3.06-.53-9.27.3-13.25-.14-.65.43-.58.9-.6-.52-2.01-.96-5.91-.6-7.53,1.63-.31.93,2.31,1.5,3.31.72-.43.5-2.21.3-3.31,2.81.24,1.53,4.39,1.5,7.23-.02,1.97.49,3.74,0,5.42.16.46.31.02.3-.3.49,1.56-.05,3.21.3,4.82.93,4.29.57,10.23.9,15.36.29,4.48.78,9.3,1.2,13.55.05.49.11.58.6.6.11.51-.23.57-.6.6.9,1.55.4,3.43.6,5.42.49,4.91,1.55,10.03,2.4,15.06.74,4.41,1.72,8.84,2.7,12.65.21.8-.33,1.83.6,2.1v2.41c.69.11.29,1.32,1.2,1.2-.83,3.46.98,7.12,1.8,10.55,1.3,5.47,1.63,11.23,3.9,15.66.95,4.57,1.78,9.26,3.9,12.65,1.43,6.49,3.77,12.08,7.2,16.56,3.71,9.13,9.15,16.52,14.71,23.8.33-.66.15-1.62-.3-2.41-.2-.35-.76-.37-.9-.6-.42-.7-.04-1.17-.6-1.81-.4-.45-.99-1.57-1.5-2.71-.35-.78-.91-1.85-.9-1.81-.1-.58,1.21-1.35,0-1.51.98-1.13,1.95-2.26,3.6-2.71.24,1.44-.94,1.46-1.5,2.1,2.54.34,3.78-3.23,6.3-3.91.41,2.31-1.79,2.02-2.1,3.61-2.05.16-2.28,2.14-4.2,2.41,0-.59,0-1.2,0-1.8ZM108.58,4.84h.6c.47-.74-1.02-.89-.9-.3.18.02.35.05.3.3ZM268.83,61.77c.04.98-.72,3.18.9,3.31,1.53-1.09.73-3.94.6-6.33-.26-4.7-.1-9.44-1.5-12.95-.34,4.79-.22,10.64,0,15.96ZM270.33,71.1c.93.21,1.25-1.72.6-2.1-.22.68-.27,1.54-.6,2.1ZM270.63,81.04c1.38-2.62-1.29-6.82.3-7.83-.07-.53.3-1.51-.6-1.2-.31,2.84-1.24,6.8.3,9.04ZM276.63,74.71c.88.1,1.02-3.16.3-2.71-.06.94.2,2.21-.3,2.71ZM273.93,82.85c.07-2.34,1.35-5.07.6-7.23.11,2.53-1.39,5.03-.6,7.23ZM107.97,77.73c-.07-.54.31-1.51-.6-1.21.04.56.2,1.01.6,1.21ZM90.27,82.85c-.05-1.27.16-.73.6-.3.07-1.01.65-1.9-.3-2.41.27,1.05-1.25,2.93-.3,2.71ZM271.83,96.4c-.28,1.59-.98,3.93.3,4.82.49-5.13,2.64-10.2,2.4-15.06-1.02,2.98-2.06,6.59-2.7,10.24ZM86.37,91.58h.6v-.6h-.6v.6ZM274.23,112.67c1.37-6.46,3.13-12.52,3.3-20.18-.07-.23-.25-.35-.6-.3-.28,7.15-3.81,13.91-2.7,20.48ZM84.87,100.62c.06-1.19.97-2.82,1.2-4.22.16-.96.71-2.92-.3-3.31.09,2.95-2.46,4.9-.9,7.53ZM274.83,93.99c.17,0,.34-.24,0-.3-.81,1.01.23,2.78,0,.3ZM208.81,97.6c-.2-1.1-2.68-1.51-3.3-1.2,1.07.43,1.93,1.07,3.3,1.2ZM89.37,102.73c1.15-.35.49-2.53,1.5-3.02-.41.02-.66-.14-.9-.3.04,1.34-.84,1.77-.6,3.32ZM270.33,105.74c1.1.1.91-1.1,1.2-1.81-.41.01-.66-.14-.9-.3.17.98-.2,1.4-.3,2.11ZM94.47,110.86c1.16-1.25.8-4.01,1.5-5.72-.07-.23-.25-.35-.6-.3-.07,2.05-1.72,4.09-.9,6.03ZM273.03,115.68c.48-.82,1.35-2.7.3-3.31-.15.79-.63,4-.3,3.31ZM95.38,115.68v.6c.73.47.88-1.03.3-.91-.02.19-.05.36-.3.3ZM121.48,119.29c-.23-.77-.3-1.71-.9-2.11-.26.74-.3,2.05.9,2.11ZM213.91,123.21c2.33.43,1.58-2.23,3.6-2.11.06,1.14-.86,2.3-1.5,1.81.09,1.01,1.36.84,2.4.91.92-.78.98-2.43,2.7-2.41-.01,1.49-1.1,1.9-1.8,2.71.35.85.62,1.79,1.8,1.8.5-1.6,2.51-1.7,2.7-3.61-1.46-.43-2.18-2.56-4.2-1.51-1.41-3.65-5.8-.13-5.7,2.41ZM210.61,123.51c2.52-.08,2.84-2.38,3.9-3.92-2.47.13-3.31,1.9-3.9,3.92ZM206.41,124.71c2.67.36,4.42-3.05,3.3-4.52-.9,1.71-2.31,2.9-3.3,4.52ZM271.53,125.02c1.21-.69,1.71-3.7,1.5-4.82-.41,1.7-1.05,3.17-1.5,4.82ZM102.57,124.41c-.11-1.19.7-1.84-.3-2.41.08.65-.23,3.21.3,2.41ZM266.73,124.41c.05-.58,1.18-2.51,0-2.41.42,1.05-.84,1.93,0,2.41ZM122.98,125.32c.23-1.14.11-2.39-.9-3.02.28,1.03.13,2.48.9,3.02ZM227.42,122.91c-.19-.09-1.16-.75-1.2,0,.19.09,1.16.75,1.2,0ZM122.08,128.93c-.26-2.45-1.2-4.22-2.1-6.03-.34,1.91,1.22,4.35,2.1,6.03ZM204.31,127.43c.22-1.19,1.46-2.94.9-3.92-.87.54-1.55,2.84-.9,3.92ZM210.01,135.86c-2.85,1.61-4.8-.22-5.7-2.41-.91,1.03.85,1.85,1.5,2.71.9,1.19,1.43,2.28,2.4,3.01,2.44-.11,4.29.5,3.9,2.41.47.03,1.04-.04.9.6,1.27-.26,2.39.28,3.6.3.87.02,2.53-1.15,3.01.3-3.02,1.39-8.05.48-9.91-1.2.27.93.75,1.66,1.2,2.41.53-.15.98.51,1.5.6,2.32.41,5.64-.42,6.6.9-1.48.81-3.79.53-6.6.6-.17,2.92,4.67,1.64,6.6,2.11.02.39.39.42.3.9-1.45.88-4.32-.28-5.4.3.88,2.23,4.22,1.99,6.3,3.02-.15.35-.32.68-.6.9-.53-.49-2.52-1.07-3.3-.3.75.85,1.42,1.79,2.4,2.41.36-.95,2.39-1.81,3.3-1.21-.26,1.16-1.69,1.11-2.7,1.51.4,2.57,3.1.97,5.1,1.8-.65.26-1.03.78-2.1.6.92,1.41,2.34,1.32,3.3,2.71,1.09,1.58,1.06,3.89,1.8,6.03.17-1.11,1.65-1.55,2.1-3.01.66-2.13-.02-5.18.6-6.63-.49.72-.97,3.03-2.4,1.81,1.35-2.31,4.27-6.09,2.4-9.64-1.05,1.77-1.05,4.58-1.8,6.63-.24.66-.95,2.45-1.8,2.11-.18-1.08.35-1.46.6-2.11-1.33-.23-.59,1.62-1.8,1.51,0-.4-.53-.28-.6-.6,1.44-2.27,3.4-4.02,3.3-7.83-.52-.12-.77.45-.9,0,.5-1.71,1.54-4.47.6-6.63-1.13,3.63-1.07,7.56-2.1,11.74h-.9c.08-2.63.84-4.58.9-7.23-1.49.81-.35,4.27-2.1,4.82-.12.72.55.65.3,1.51-.35-.45-1.13-.47-1.5-.91,1.38-3.73,2.19-9.41,1.8-13.55-1.16-.04-1.3,2.49-2.4,1.51,1.08-2.35,1.95-3.89,2.7-6.03-1.1-4.06,2.13-5.45,1.8-9.64-.81-.19-.74-1.26-1.8-1.21-1.58,2.23-3.55,4.07-4.5,6.93.6,0,.38.82,1.2.6,1.17-1.64,1.26-4.36,3.3-5.12.08,2.69-1.76,3.46-2.1,5.72-.11,1.11,1.22.79.9,2.11-1.84,1.36-3.06,3.35-5.7,3.92-.13-.58-.65-.76-.6-1.51,1.43.03,1.64-1.16,3-1.2.23-3.34-2.65-3.57-4.8-4.52,1.06,2.9-1.24,6.98-3.6,5.42.89-1.2,4.32-5.92,0-6.02.18,1.12.71,1.89.9,3.01-1.11.84-1.13,2.3-2.4,3.02ZM102.28,125.62h.6v-.6h-.6v.6ZM211.21,127.72c.84-.24.78.43,1.49.3.25-1.16.98-1.83,1.2-3.01h-1.8c-.29.91-.61,1.8-.9,2.71ZM262.83,128.03c.1-.75,1.55-2.85.3-3.01-.15.77-.99,2.39-.3,3.01ZM208.51,126.82c-2.42-1.02-3.15,2.26-5.1,2.71v2.41c1.89-1.72,3.55-3.67,6.91-3.92.24-.65.2-1.56.6-2.71-1.7-.4-1.49,1.11-2.4,1.51ZM213.91,128.33h1.5c-.19-1.5.83-1.78,1.2-2.71-.7-.1-1.13-.48-2.1-.3.32,1.52-.68,1.72-.6,3.01ZM270.93,128.63c-.32-1.18,1.77-2.63.3-3.01,0,.92-1.2,2.18-.3,3.01ZM216.31,128.93c1.19-.09,1.51.69,2.7.6.15-.96.95-1.26.9-2.41-1.06-.04-1.34-.86-2.4-.91-.65.65-1.31,1.3-1.2,2.71ZM107.68,128.03c.07-.23.25-.35.6-.3.38-2.45-1.07.27-.6.3ZM107.68,131.04c.23-.21.67-1.68,0-1.81.08.53-.84,1.5,0,1.81ZM107.38,132.84c.21-.22.75-1.47-.3-1.2.05.45-.11,1.11.3,1.2ZM124.49,133.15c-.19-.72-.41-1.41-1.2-1.51.19.72.41,1.41,1.2,1.51ZM209.71,133.45v-1.51h-.9c.04.77.06,1.55.9,1.51ZM107.38,134.66c.04-.4.05-2.18-.3-1.21-.04.4-.05,2.18.3,1.21ZM107.68,137.97c.02-1.03.09-2.1-.6-2.41.24.76-.58,2.59.6,2.41ZM124.18,144.29c.28-1.63-1.46-5.05-2.4-5.42.63,1.98,1.13,4.09,2.4,5.42ZM227.12,140.68c-.18-.62.48-2.09-.6-1.81.18.62-.48,2.09.6,1.81ZM132.58,161.46c.59-.37.06,2.94,1.5,2.71-.14-1.97-1.23-3.71-2.1-5.42-1.06-2.09-2.36-4.33-3.3-5.72-.29-.43-.65-1.29-.9-1.81-1.05-2.16-1.42-4.93-3.3-6.63,1.97,6.35,5.04,11.6,8.1,16.86ZM230.12,146.7c.05-.21-.1-1.76-.3-.91-.27,1.15.16,1.51.3.91ZM268.23,147.6c-.38-1.01,1.17-1.59.3-2.11-.15.48-1.15,1.61-.3,2.11ZM267.03,150.32c-.01-.45,1.11-1.23.3-1.51-.06.38-.87,1.47-.3,1.51ZM261.33,175.62c-.77.03-.43,1.17-1.2,1.2.06.86-.08,1.53-.6,1.81.16,1.08.84-.58,1.2-1.21.51-.88.6-2.34,1.49-2.41,1.47-5.15,4.01-9.23,5.7-14.16-.55-.95-1.02,1.01-1.5,0-.59-4.4,2.97-8.06,2.7-12.05-1.38,2.53-1.28,6.55-3.6,8.13-1.03-.16-.46-1.45-.3-2.11-.92.22-1.09-.31-1.8-.3.04,2.17.73,3.68,1.5,5.12-.21,2.1-1.74,4.47-1.5,6.03.71-1.3.9-3.11,1.8-4.22.43.17,1.55-.35,1.5.3-1.38,5.05-4.03,8.81-5.4,13.86ZM231.32,159.95c-.36.04-.71.09-.6.6,1.75-1.32,1.8-7.39,1.8-9.94-.47,3.51-1.74,6.2-1.2,9.34ZM132.89,152.13c.79,1.1,1.34,2.4,2.1,3.61.66,1.05,1.38,2.61,2.7,3.01-.78-3.14-2.96-4.86-4.2-7.53-.03.47-.77.23-.6.91ZM143.69,157.54c-.4-1.4-.84-2.77-2.1-3.31.47,1.33,1.33,2.28,2.1,3.31ZM139.49,156.94c-.16-.38-.73-1.83-1.2-.9.68-.15.9,1.66,1.2.9ZM270.33,159.66c-.05-.88,1.06-2.13.3-2.71-.15.68-.93,2.26-.3,2.71ZM136.79,164.17c.34.61.59,1.25.9,1.81.67,1.22,1.38,2.16,2.1,3.31,2.19,3.53,3.05,7.55,6.3,8.13-4.64-6.19-6.96-14.69-12.3-20.18.46,2.56,2.06,5.25,3,6.93ZM144.59,158.75c.08-.69-.07-1.13-.6-1.21-.08.69.07,1.14.6,1.21ZM139.49,161.46c-.62-.78-.81-1.99-1.8-2.41-.09,1.31,1.28,2.71,1.8,2.41ZM233.12,161.46c.07-.56.78-1.99,0-2.41.35.98-.92,1.85,0,2.41ZM265.23,171.1c-1.63,3.57-4.68,9.4-4.5,11.74-.02.32.14.77.3.3,1.9-3.34,3.22-7.13,4.8-10.84,1.55-3.63,3.53-7.42,3.6-11.44-.84,3.07-2.54,6.6-4.2,10.24ZM146.69,162.06c.02-.52-.23-.77-.6-.91-.02.52.23.78.6.91ZM230.71,165.68c.37-.85,1.47-2.53.6-3.61-.27.95-1.58,2.42-.6,3.61ZM230.42,170.2c-.38-1.2,1.06-2.13.3-2.71-.54.76-1.03,1.58-.9,3.01-1.07.03-1.86,1.5-2.4.3-.02,2.67-.65,3.76-1.5,6.03.82.61,1.24-.82,2.1-1.2,1.29-.58,3.28-.52,4.51-1.21.29-1.82,2.23-3.57,1.2-5.72-.48,1.72-.76,3.66-1.8,4.82-1.18-.1.22-.93-.6-1.21-.21.61-1.36,1.31-1.5.3,1-1.31,1.89-2.73,3-3.92-.28-1.58,1.22-4.27-.3-5.12-.65,2.27.2,6.03-2.1,6.63ZM254.13,166.58c.15-.87,1.32-2.27.6-3.02-.1.92-1.47,2.13-.6,3.02ZM219.91,169.29c1.74-1.56,3.59-3.02,4.51-5.42h-.9c-.35,2.66-3.48,2.53-3.6,5.42ZM134.08,165.38c.84.06.82.98,1.51,1.21-.14-.77-.42-1.39-.9-1.81,0,.4-.53.27-.6.6ZM220.51,172.3c1.51-1.9,3.03-3.79,4.8-5.42.02-.52-.23-.77-.6-.9-1.04,2.27-4.74,3.46-4.2,6.32h0ZM227.42,167.79c.19.82-.38,2.39.3,2.71.48-1.33,2.31-2.9,1.5-4.52-.62.58-.49,1.91-1.8,1.81ZM260.73,167.18c.08-.18.74-1.16,0-1.2.29.56-.9,1.01,0,1.2ZM259.83,169.59c-.33-.77,1.03-1.55-.3-1.51.16.44-.35,1.56.3,1.51ZM155.69,186.16c.77-.32,1.05,1.3,1.5.3-2.73-3.48-4.47-7.96-7.5-11.14-3.43-.88-3.97-4.65-6.3-6.63,3.06,6.87,8.58,11.27,12.3,17.47ZM250.82,172.6c.95-.46,2.03-2.36,1.5-3.31-.15,1.45-1.48,1.72-1.5,3.31ZM151.49,171.7c-.15-.87-1.08-2.51-2.1-1.51.79.41,1.14,1.27,2.1,1.51ZM233.72,175.02c1.09-.09,1.95.05,2.7.3-.09-1.62-.89-2.52-1.8-3.31.15,1.45-.94,1.67-.9,3.01ZM255.63,175.02c.07-.47,1.16-1.41.3-1.81-.07.47-1.15,1.41-.3,1.81ZM174.9,175.92c1.03,1.11,1.56,2.36,3,.91-.31-1.09-.94-1.87-1.8-2.41-.3.6-.75,1.06-1.2,1.51ZM222.31,175.32c.05-.36.54-.68,0-.91-.04.35-.53.68,0,.91ZM141.29,177.72c-.17-1.33-.67-2.34-1.5-3.01-.16,1.66.65,2.36,1.5,3.01ZM168,177.13c.94.66,1.35,1.85,2.1,2.71.35-.76,1.2-1.01,1.2-2.11-1.02-.48-.81-2.2-2.1-2.41-.06.94-.78,1.23-1.2,1.81ZM254.72,176.82c.04-.36.54-.68,0-.91-.04.36-.53.68,0,.91ZM172.8,178.33c.78.42.7,1.71,2.1,1.51.96-1.29.31-2.94-1.2-3.31.16,1.07-1.06.74-.9,1.81ZM246.02,190.38c-.86-.06-1.64-.04-1.5.91,1.19.26,1.51.26,2.7,0,1.28-2.17,2.67-4.55,3.9-6.93,1.23-2.38,2.83-4.72,3-7.23-2.42,4.7-4.1,10.14-8.1,13.25ZM247.52,180.14c.47-.35,1.78-1.4.9-2.11-.26.57-1.9,1.29-.9,2.11ZM147.89,181.04c.31-1.33-2.1-2.74-1.5-2.41.23,1.07.77,1.83,1.5,2.41ZM166.8,180.44c.96.14,1.06,1.15,2.1,1.2.04-1.74-.33-3.08-1.8-3.31.15.95-.54,1.06-.3,2.11ZM171,181.04c.39.52.63,1.19,1.51,1.21.88-1.14.57-2.69-.6-3.31-.14.86-1.06.94-.9,2.1ZM143.99,181.94c-.38-1.13-1.11-1.9-1.8-2.71.25,1.26.69,2.32,1.8,2.71ZM228.32,182.84c2.3.3,3.18-.82,4.5-1.51-2.12-.11-3.34.67-4.5,1.51ZM245.72,181.94c.69.08,1.13-.07,1.2-.6-.53.07-1.51-.3-1.2.6ZM173.1,182.84c-.07-.23-.01-.59-.3-.6.84,1.53.61,2.94,1.8,3.61.43-.78,1.12-1.29,1.5-2.11-.74-.67-1.32-1.49-2.4-1.81-.15.35-.32.68-.6.9ZM171.3,183.15c-.78-.03-.32-1.29-1.5-.9,0,.63,1.2,1.56,1.5.9ZM245.42,186.46c-2.04-.77-3.28-3.93-5.4-3.61,2.46.34,2.8,4.42,5.4,3.61ZM162.3,185.86c-.23-1.68-1.54-2.28-2.7-3.02.45,1.45,1.82,1.99,2.7,3.02ZM249.32,190.68c1.64.03,1.27-1.94,2.7-2.11.3.81-.66,2.52,0,1.81.6-1.81,1.81-3.01,2.4-4.82-.4-.74-.91.54-1.2-.3-.26-1.36.7-1.51.9-2.41-2.03,2.18-3.26,5.16-4.8,7.83ZM259.83,185.86c0-1.43,1.54-1.91.3-3.02,0,.92-1.2,2.19-.3,3.02ZM152.39,186.46c2.19,1.42,3.46,3.76,5.4,5.42-1.83-3.28-4.16-6.07-6.6-8.73.39,1.73.98,1.41,1.2,3.31ZM246.02,186.46c1.37.68,4.07-2.52,3-3.31-.68,1.42-2.47,1.74-3,3.31ZM146.99,185.86c-.74-.66-1.16-1.65-1.8-2.41.03,1.19,1.04,2.96,1.8,2.41ZM237.02,186.16c1.07.18.91-.89.9-1.8-.66-.17-2.11-1.07-2.4-.6,1.64.29,1.16,1.2,1.5,2.41ZM175.5,186.46c.53.27.88.73,1.5.91.51-1.61,2.05.4,2.7.6-.44-1.67-1.65-2.56-3-3.31-.27.74-.37,1.64-1.2,1.81ZM249.92,195.8c2.07-.84,2.76-3.14,3.9-4.82,1.17-1.71,2.71-3.28,3.3-5.42-.07-.23-.25-.35-.6-.3-1.9,3.82-4.19,7.24-6.6,10.54ZM166.8,186.46c-.15-.35-.32-.68-.6-.9-.05.4.47,1.66.6.9ZM164.4,192.48c-1.34-2.67-3.61-4.41-5.7-6.32,1.74,2.27,2.55,5.47,5.7,6.32ZM198.01,188.57c1.28-.22,1.6-1.41,3.3-1.2-.31-1.08-2.85.45-3.3,1.2ZM169.8,190.07c-.13-1.07-.76-1.65-1.5-2.11.13,1.08.76,1.66,1.5,2.11ZM154.19,192.79c-.52-1.99-2.04-2.97-3.3-4.22.85,1.66,1.72,3.29,3.3,4.22ZM187.5,193.99c1.44-1.97,6.29-2.12,6.3-4.52-2.03,1.38-6.68,1.72-6.3,4.52ZM203.71,190.98c.09-.8-.42-.99-1.2-.91-.12.73.55.66.3,1.51-2.21,1-4.49,1.92-6,3.61.36.04.71.09.6.6-.9,1.01-3.15,2.26-2.7,3.61,3.8-5.12,10.13-7.71,17.41-9.34-2.44-.2-7.29-1.13-8.4.91ZM171,191.28c-.3-.4-.28-1.12-.9-1.21.19,1.85,3.43,3.07.9,1.21ZM201.61,190.38c-2.4.81-6.14,1.87-6.31,3.92,1.72-1.68,4.42-2.39,6.31-3.92ZM184.8,192.48c-2.06.06-3.41-.59-5.4-.6.2-.71-1.92-1.25-1.2-.6,1.27,1.12,4.57,2.78,6.6,1.2ZM169.2,191.88c-.59.09-.6-.41-.9-.6-.27.62.78,1.35.9.6ZM244.82,203.03c1.73.4,2.62-1.4,3.9-2.41,1.4-1.11,3.26-1.94,4.2-3.31,1.19-1.72,1.66-4.05,2.4-5.72-3.05,4.27-5.99,8.64-10.5,11.44ZM191.7,193.69c1.43.76,2.76-1.26,2.7-1.81-.73.77-1.8,1.21-2.7,1.81ZM246.62,194.29c1.23-.47,2.33-1.08,2.7-2.41-1.59.11-2.05,1.35-2.7,2.41ZM244.22,194.59c.79-.41,1.39-1.02,1.8-1.81-1.71.21-2.49-.51-4.2-.3.42,1.08,1.01,2,2.4,2.11ZM177,196.1c-.55-.87-1.85-2.54-3-1.81,1.22.38,1.87,1.33,3,1.81ZM182.4,196.1c.82-.09,2.66-.72,1.8-1.51-.3.81-1.83.38-1.8,1.51ZM157.19,199.41c.83.97,2.45,1.5,3.3,2.11.49.35-.03,1.59.9.6-2.45-2.15-3.64-5.58-6.6-7.22.8,1.29,1.35,3.3,2.4,4.52ZM241.52,197.3c.14-.94-.26-1.34-1.2-1.2-.14.94.26,1.34,1.2,1.2ZM244.82,197.6c-.77.33-1.43-.92-1.8,0,.51.54,1.35.84,1.8,0ZM183.6,198.21c.47-.03,1.04.04.9-.6h-.6c0,.3-.24.36-.3.6ZM245.72,200.02c1.13.01,2.35-1.45,2.1-1.81-.58.72-1.6,1-2.1,1.81ZM230.71,203.33c.75-.97,3.17-3.96,2.1-4.52-.15,1.86-3.46,2.15-2.1,4.52ZM169.2,205.44c1.05-.43,1.92.84,2.4,0-3.04-1.67-5.26-4.17-8.41-5.72,1.49,2.42,4.17,3.65,6.01,5.72ZM193.2,200.61c.62.27,1.35-.78.6-.9-.07.43-.49.51-.6.9ZM122.68,204.83c.2-2.71-1.53-3.49-3.9-3.61-.22,2.73,2.49,2.52,3.9,3.61ZM178.8,203.33c-.58-.47-2.28-.54-2.4-.6-.7-.34-1.59-2.04-1.8-1.2,1.12.69,2.6,2.59,4.2,1.81ZM243.02,202.12v-.9c-.45.05-1.11-.11-1.2.3.6,0,.39.82,1.2.6ZM228.32,210.56c1.09-.2,1.35-.89,2.1,0,1.14-3.07,2.69-5.73,3.9-8.73-3.23,1.68-3.55,6.28-6,8.73ZM221.71,204.23c.77-.03,1.54-.06,1.5-.9-.7.1-1.29.31-1.5.9ZM246.02,205.14c1.46-.04,2.61-.39,3.3-1.21-.97.38-.23-.97-1.2-.6-.23,1.06-1.75.85-2.1,1.81ZM223.81,207.24c2.35-.45,3.33-2.29,4.8-3.61-2.45.34-4.12,1.48-4.8,3.61ZM120.28,207.84c1.4.41,2.53,2.67,4.2,1.81-.59-2.02-2.44-4.37-4.2-4.21.67.31-.39,1.39,0,2.41ZM227.12,208.45c.87-.93,2.61-.99,2.7-2.71-1.59.02-3.18,1.61-2.7,2.71ZM219.01,209.65c.88-.63,2.65-.35,2.7-1.81-.35-.05-.85.05-.9-.3.05-1.06,1.84-.36,1.8-1.51-2.32.08-2.77,2.04-3.6,3.61ZM215.71,209.05c1.31-.3,2.98-.22,2.7-2.11-1.86-.27-1.81,1.39-2.7,2.11ZM221.71,210.56c1.99-.21,3.29-1.12,3.9-2.71-1.43.78-3.55.86-3.9,2.71ZM212.11,210.56c1.52-.08,2.12-1.09,2.7-2.11-1.75-.15-2.32.89-2.7,2.11ZM171,211.46c-1.66-.74-3.63-1.17-5.1-2.11.95,1.26,3.32,2.69,5.1,2.11ZM223.81,212.67c1.43-.24,4.6-1.72,3-3.02-1.1.9-2.55,1.46-3,3.02ZM217.21,212.36c1.41-.2,2.84-.36,3-1.81-1,.6-2.92.28-3,1.81ZM125.99,212.96c-.22-.51-1.13-1.84-1.8-.9.68.04,1.16,1.81,1.8.9ZM131.39,215.98c-.1-1.41-1.6-2.67-1.2-3.61-1.5.2-2.32-.28-3.6-.3-.2,3.11,2.55,3.26,4.8,3.92ZM179.4,212.06c-.44.16-1.55-.35-1.5.3.44-.17,1.55.35,1.5-.3ZM133.18,218.99c.04-1.74-2.93-2.06-3.9-1.81,1.08.7,2.32,2.59,3.9,1.81ZM138.89,220.8c-.48-2.03-1.91-3.1-4.8-2.71-.06,2.57,3.07,1.94,4.8,2.71ZM141.89,224.41c-.88-1.73-2.5-2.71-5.1-2.71.69,1.73,2.81,3.6,5.1,2.71ZM143.99,225.31c1.86.29,3.26-.56,4.5,0-.28-1.32-1.76-1.45-1.8-3.01-1.92.22-3.05-.35-4.8-.3.15,1.67,1.48,2.14,2.1,3.31ZM141.89,226.52c.66.07,1.62,1.36,2.1.6-.32-.61-1.82-1.77-2.1-.6ZM155.99,227.12c-.4-.2-.56-.64-.6-1.2-1.07.17-2.93.67-3.9,0-.45,2.17,3.35,1.65,4.5,1.2ZM145.49,226.52c-.2,1.55,4.64,1.43,5.1.6-.43-.17-.73-.47-.9-.9-1.66.4-3.02-.07-4.2.3ZM158.69,228.63c.54,1.46,1.43,2.58,3.6,2.41.02-1.42-1.16-1.65-1.5-2.71-.8,0-1.72-.11-2.1.3ZM147.59,229.23c2.11.49,4.14,2.67,6.6,1.81-.89-2.27-4.44-3.1-6.6-1.81ZM158.69,231.34c-.13-1.27-1.1-1.7-1.5-2.71h-3.3c.72,1.78,1.87,3.15,4.8,2.71ZM157.19,232.54c1.09.82,2.99,2.42,4.8,1.51-1.26-1.16-2.55-2.91-4.8-1.51ZM165.3,233.75c.29-1.4-1.8-.41-1.5-1.81h-1.8c.32,1.38,1.35,2.05,3.3,1.81ZM173.1,233.45c1.1.82,3.47,1.36,4.8.3-.52-1.62-3.71-1.33-4.8-.3ZM168.59,234.35c.38.13.61.39.6.91,1.52.02,2.89-.12,3.9-.6-1.01-1.32-3.08-1.4-4.51-.3ZM180.3,234.65c1.44,1.45,2.86,1.05,5.1.6-.48-2.24-3.57-1.8-5.1-.6ZM192.3,234.95c1.43,0,1.9,1.55,3,.3-.28-.52-1.1-.49-.9-1.51-1.28-.18-1.91.29-2.1,1.2ZM167.7,235.26c-1.12.02-1.19-1.02-2.7-.6-.18,1.1,2.19,1.19,2.7.6ZM177,235.26c-.09,1.4,2.48,1.58,3,.6-.65-.45-.9-1.31-2.1-1.2.04.54-.3.71-.9.6ZM188.4,235.56c.79,1.86,3.35,1.67,5.4,1.2-1.17-.83-2.68-1.32-3.9-2.11.29,1.09-1.29.31-1.5.91ZM201.31,234.95c-.83-.16-1.72.76-2.7,1.21.8.91,4.61.69,4.51,0-1.32.63-.92-1.04-1.8-1.21ZM205.81,235.85h2.1c.05-1.22-2.05-1.04-2.1,0ZM172.2,236.46c1.39-.37,2.66.92,3.6,0-1.03-.45-2.72-1.02-3.6,0ZM184.5,236.76c.91.01,2.57.81,3.3,0-.79-.46-2.67-1.11-3.3,0ZM195.6,236.76c.44-.17,1.55.35,1.5-.3-.38-.41-1.47-.46-1.5.3Z"/>
    </g>
    <path class="cls-2" d="M126.58,27.43c9.37,2.24,16.11,7.12,25.21,9.64-.15.95,1.49.11,1.2,1.2,1.43.07,2.81.99,4.2,1.51,1.31.48,3.46.26,3.6,2.11-8.17-1.95-14.29-5.94-22.51-7.83-1.23-1.27-3.46-1.55-5.4-2.11,1.32,1.39,3.26,2.21,5.1,3.02,3.48,1.51,7.11,3.03,11.1,4.52,1.76.66,4.24.68,5.4,2.41-.58,1.26-3.18-.33-3.9-.91-2.96-.14-4.47-1.73-7.2-2.11-1.78-1.39-4.54-2.17-7.2-3.31-4.23-1.8-7.35-4.3-11.7-2.41-.65.28-1.52.36-2.1.6-1.06.43-2.16,1.62-3.6,1.21.1-.6-.06-.94-.6-.91,1.32-3.89,7.18-4.51,12-3.92-.83-1.27-3.79-.41-3.6-2.71ZM120.88,33.15c.72,0,2.11-.86,1.5-1.21-.22.69-1.71.09-1.5,1.21Z"/>
    <path class="cls-2" d="M132.29,50.62c2.66,1.59,7.01-.1,8.1,2.71-1.15.54-2.1-.42-3.3-.6-5.21-.8-11.56.2-16.21,1.2.98-2.86,5.73-2.4,8.1-3.01-.23-.88-2.47.27-2.7-.6.44-1.64,2.9-.06,4.5-.9-1.93-2.14-7.18,0-9.3-1.21,1.59-2.17,7.41-1.17,9.6-.3.39.4.39,1.11,0,1.51,4.39-.93,9.73.12,13.81,1.81.29.12.59.76.9.9.82.39,2.03.29,2.7.6.18.08-.05.51.3.6.65.17,3.14.95,2.7,2.41-.8.45-1.75.04-2.4-.3-.66-.34-.93-1.5-1.8-1.81-1.71-.6-4.71-1.06-7.2-1.81-.04-.01-2.14-1.11-2.7-1.2-1.68-.27-3.67.49-5.1,0Z"/>
    <path class="cls-2" d="M162.9,120.49c.86-.54,1.3-1.51,2.1-2.1,2.08-.28,1.86,1.74,3.3,2.1.9,0,.39-1.42.9-1.8,2.08.42,2.74,2.27,3.3,4.21,2.09-.44,3.21.18,3.9,1.81.46-.34.63-.98,1.5-.9.49.91.88,1.93.9,3.31,3.37,1.73,5.31,4.91,6.6,8.73.45-.43.65-.96.6.3,1.76-1.93-1.88-3.22-1.5-5.72,1.85.35,1.96,2.45,3.01,3.61,2.04-1.89,1.64-6.73,1.8-9.64,2.3.3,1.44,3.55,1.2,5.12-.42,2.76-1.81,5.66-2.1,7.83.23.27.32.68.3,1.2,1.4-1.91.96-4.72,2.1-6.63.93-1.55,2.67-2.54,4.2-3.31-.46,3.26-3.85,3.57-3.9,7.23-.4.3-1.11.29-1.2.9-.05.85,1.01.59.6,1.81,2-1.5,2.54-4.47,4.2-6.32.39,4.61-3.63,7.4-4.8,11.45,3.99-1.22,3.51-6.93,6.6-9.04.65.64.11,1.64-.6,1.8-.96,3.96-2.96,6.88-5.4,9.34h-.9c-.71.49-.64,1.77-1.2,2.41-.83.13-.28-1.13-.9-1.2-1.25-.15-1.44.76-1.5,1.81-1.45,1.35-2.43,3.18-3.3,5.12.27.82.67-.92,1.2,0,.49,1.36-.64,2.07-1.2,2.71-.38.43-.23,1.41-.3,1.51-.52.68-1.53.9-2.1,1.51-1.38,1.47-1.88,4.28-4.2,4.52.23-2.18,2.28-2.53,3-4.22-1.28-.56-4.13,2.71-5.7.91,1.16-1.34,4.09-.91,4.8-2.71-1.47-.77-4.18,1.42-5.7.6-.08-1.08,1.42-1.29,2.1-1.51,2.13-.67,4.61-.66,6-2.11.68-2.23,2.32-3.49,3-5.72-1.38.89-3.39,1.84-2.7,3.92-1.86.24-1.95,2.26-3.9,2.41-.08-.49.28-.52.3-.91-2.22.78-5.09.91-6.9,2.11.22-.92-.31-1.1-.3-1.81,1.04.24,1.27-.33,1.8-.6-2.33-1.43-3.07,1.33-4.8,1.51-.13-.63.2-.8.3-1.21-1.44.36-3.56.05-4.5.91-.64-.19-.28-1.85,0-2.11-1.01-.4-2.54-.27-3.3-.91-2.97,1.24-4.52,3.9-8.1,4.52.66-2.39,5.44-2.88,6.6-5.72,2.08.18,2.06-1.74,3.9-1.81-.07,1.14-.94,1.46-1.2,2.41,1.99-.03,3.1.57,4.5-.3.39-1.3-1.43-.38-1.2-1.51.05-1.21,1.9.33,3,0,.84-.46,1.58-1.02,2.1-1.81-.24-.51-4.09.94-3.9-.91,1.66-.24,3.59-.2,5.1-.6,1.51-1.19,2.36-3.04,3.6-4.52.96-.26.94.46,1.2.91,1.13-.78.68-3.14,2.1-3.61.68.83-.04,2.18-.3,3.01,1.53.47,2.02-2.34,1.5-4.22-.71,0-.89.52-1.8.3.34-.35.34-1.06.3-1.81-1.46.34-1.59,2.02-3,2.41-1.09.08-.69-1.32-1.2-1.81-1.85-2.26-5.27-2.95-9-3.31,3.83,1.78,7.27,3.94,8.1,8.73-2.33.52-5.67,4.9-7.8,1.81,1.12-.48,2.5-.7,3-1.81-.99-5.33-4.32-8.31-10.2-8.73,2.16,4.24-.12,8.22-2.7,10.54-3,.07-6.35.85-8.41-.6.03,1.78,1.44,2.17,1.5,3.92-2.84-.22-4.79.36-6-1.2.73-5.59,2.61-10.03,6-12.95h1.8c6.34-3,18.13-2.74,23.41.6.84-.85,1.85-2.57,0-3.02-1.17-.26-.49,1.32-1.8.91-.91-.89.61-.66.3-1.81-1.31-.21-1.33.87-2.4.9-1.35-1.8,1.59-2.51,2.4-3.91-.75-.85-1.8-1.41-2.4-2.41-1.93.73-3.18.59-4.8-.3-.85-.05-.76.85-1.2,1.2-1.91-.46-3.59-.1-5.4,0-.55-.35.16-1.96-1.2-1.51-.44.49.2,1.45-.6,2.11-1.97-.68-4.05.36-5.7-.3-.55.49.21.96-.6,1.51-1.43.28-2.14-1.25-3.3-.3-.28,1.17,1.17,1.24.3,2.1-1.08.93-1.9-.33-3-.3.08.63,1.11.29,1.2.91.25.85-.42.78-.3,1.51-1.63-.23-2.33.48-3.9.3.66.44,1.55.65,1.5,1.81-1.47.43-2.73,1.07-4.2,1.51-.74-2.21,1.32-4.06,2.1-5.72.27.23.68.32,1.2.3,1.17-2.44,3.14-4.08,3.6-7.23,1.48-1.12,2.95-.74,4.8-.3.11-1.02-1.33-.47-.9-1.81.77-.55,1.89.56,3.01.6-.12-.98-1.59-.61-1.2-2.11.93-.35,2.53-.05,3.6.3.69-.63-.34-1.27.6-1.81,2.39,1.15,5.48-.97,7.5.91,1.06.16.74-1.07,1.8-.91.26.24.18.83.6.91.06,1.07-1.41.59-1.2,1.8ZM174,127.43c-.34-.82-2.37-.82-2.7,0,1.37.13,2.22.79,3.3,1.2.96-.89,1.51-.8,3-.3-.04-1.07.22-2.43-.9-2.41.2,2.6-2.13-.65-2.7,1.51ZM172.2,128.93h-1.2c-.47,1.4,1.55,1.04,1.2,0ZM177.9,131.64c.26-1.77-.78-2.23-2.1-2.41.76.74.9,2.11,2.1,2.41ZM180,130.74c.06-.86.04-1.65-.9-1.51-.14.94.38,1.23.9,1.51ZM172.8,130.44c.68.36,1.32.87,1.8,0-.39-.42-1.59-1.08-1.8,0ZM177,134.05c0-1.4-.57-2.24-1.8-2.41.42.99.78,2.03,1.8,2.41ZM181.8,138.27c.53.17,1.24.15,1.5.6-.09,1.21-1.42,1.19-1.2,2.71,1.3-.4,1.79-1.62,2.7-2.41-.82-2.99-1.29-6.34-3.9-7.53-.03,3.09,1.08,3.28.9,6.63ZM179.1,134.35c0-.71.52-.89.3-1.81h-.9c0,.8-.17,1.77.6,1.81ZM176.1,135.26c-.4-3.48-4.78.48-1.2,2.11.42-1,1.31-1.18,1.2-2.11ZM151.79,134.96c.38.72,1.31.89,1.2,2.1-.79,1.18-2.7-.55-3.3.91.31,1.44,2.14-.4,2.4,1.2.14,1.04-.11,1.69-.3,2.41-3.26.95-5.29-.57-6.01-3.02-1.73,5.22,4.93,6.41,7.81,4.22,2.33-1.78,2.34-5.96.9-8.43-.97.13-2.59-.4-2.7.6ZM179.7,138.57c.81-.73,1.43-3.02,0-3.61-.45.48-1.3,3.32,0,3.61ZM180,140.07c1.03.13,1.71-.09,1.5-1.2-.88.02-1.11.69-1.5,1.2ZM185.7,141.28c1.31.38,2.67-1.95,1.2-2.41-.51.7-1.12,1.29-1.2,2.41ZM188.4,142.48c.96-.08,1.72-2.4.6-2.71-.3.8-.62,1.59-.6,2.71ZM179.1,144.29c.76-.74,1.87-1.14,1.8-2.71-1.45-.14-2.12,2.07-1.8,2.71ZM179.4,147.6c2.39-.92,5.27-2.94,4.5-6.02-1.8,1.71-3.47,3.55-4.5,6.02ZM185.7,142.48c-.08,1.83-2.05,3.36-1.5,4.82,2.02-.48,1.08-3.94,3.3-4.22-.05-.35.06-.85-.3-.91-.27.53-1.05.78-1.5.3ZM187.8,145.49c1.03.47,1.43-2.02.3-1.8.22.92-.52.89-.3,1.8ZM175.8,146.4c1.11-.4,1.7-1.31,2.1-2.41-1.3.02-2.84,1.35-2.1,2.41ZM172.5,146.7c.94.12,2.01-1.17,1.2-1.81-.2.81-.86,1.15-1.2,1.81ZM177,149.11c1.67-.33,1.45-2.56,2.4-3.61-1.68.32-1.81,2.2-2.4,3.61ZM174,148.21c-.1,1.97,2.94.19,1.8-.6-.37.43-1.03.57-1.8.6ZM169.5,150.32c1.6,0,2.46-.75,2.7-2.11-1.47.14-2.21.99-2.7,2.11ZM177.9,151.22c1.33-.87,3.44-.96,3.6-3.01-1.26.94-3.53.88-3.6,3.01ZM174.9,152.13c.89-.03,2.39-.99,1.5-1.81-.65.45-1.1,1.11-1.5,1.81ZM170.7,153.03c1.77.07,2.9-.5,3-2.11-1.78-.07-2.44.97-3,2.11ZM166.5,153.63c2.03.33,2.86-.54,3.3-1.81-1.4-.43-2.99-.2-3.3,1.81ZM175.5,154.23c1.65-.46,3.67-.54,3.9-2.41-1.42.69-3.26.95-3.9,2.41ZM173.1,154.53c.62-.18,2.08.49,1.8-.6-.46-.83-1.76.01-1.8.6ZM179.4,157.85c.98.61,2.1-.78,2.4-1.81-1.09.31-1.86.94-2.4,1.81Z"/>
    <path class="cls-2" d="M99.88,152.72c-.46-.33-.63-.98-1.5-.9-.77.03-.6,1.01-.6,1.81-1.55.15-2.36-.45-3.3-.91-1.62,5.21-3.49,10.15-4.8,15.67.34.66,1.53.46,1.8,1.2.89-5.14,2.29-9.76,3.9-14.16.92.02.72-1.08,1.8-.91-1.64,5.13-3.84,10.45-4.5,15.66.08,1.03,1.17,1.04,1.2,2.11,1.02-1.19,1.04-2.79.3-3.91,1.32-4.4,2.56-8.89,4.2-12.95,1.63.99-.77,3.95,0,5.12-1.26.28-.74,1.68-.6,2.71,1.61-1.82,1.22-4.62,1.8-6.93,2.44-.24,3.28,1.13,5.1,1.51.29,1.63,1.35,1.94,1.5,3.31.28,2.48-1.94,4.82-1.5,7.23.49,2.74,6.61,5.83,2.7,9.64-1.57.16-1.42-1.39-1.51-2.71-4.89,1.16-8.38-.56-9.9-4.21.08.54-.28.62-.3.3-.68.67-.09,1.61-.3,2.41-.13.49-.6.56-.6.91-.03,2.3,1.39,3.14,2.1,5.12-2.32.22-2.97-1.24-5.1-1.21-.65-2.26-1.16-4.65-1.5-7.22-.98-1.67-3.81.38-4.5-1.51.39-1.02,1.94-.87,3-1.21-.04-6.97,3.13-9.95,4.2-16.86-1.08-.06-1.58,1.47-2.1,2.41-1.08,1.96-2.3,5.6-2.7,8.44-.31,2.14.71,4.95-1.2,6.02.04-1.47-.16-3.17.3-4.22-1.49.52-.76,3.26-2.1,3.92-.91-5.83,2.33-11.35,3.9-16.56.93-.14,1.07.76.6,1.2.79-.21,1.35-.66,1.2-1.81-4.31-1.21-4.08,4.73-8.1,4.82,0,4.66,2.22,9.64.3,12.05-1.4-1.04-.36-3.4-.6-5.42-.14-1.17-1.17-2.5-1.5-3.92-.32-1.35.14-3.37-1.2-3.92,1.31-3.3,3.47-5.74,5.7-8.13,2.89-.9,6.07-2.15,9.01-.6.47.25,1.06,1.01,1.8,1.51,1.39.94,5.61,2.92,3.6,5.12ZM100.78,164.17c.48.82,1.01-.44.3-.6,0,.3-.24.36-.3.6Z"/>
    <path class="cls-2" d="M114.28,146.1c.48-.08.52.29.9.3-.09,2.27-3.21,2.94-2.1,5.42.42-.68.62-1.28,1.2-.3,1.52-.48.93-3.08,2.1-3.92,1.07.43.3,2.12.3,3.61.93.9.6-1.17,2.1-.6.07,2.48-2.33,2.49-2.1,5.13,2.1-.11,1.47-2.94,3.6-3.02-.29,3.73-3.81,4.21-3.6,8.43,1.79-1.11,1.98-3.84,4.2-4.52.6,2.57-2.54,2.79-1.2,5.12,1.39-.61,1.44-2.57,2.7-3.31.97,2.58-2.14,3.67-2.4,6.03.31,1.58,1.19-.84,1.5,0,.32,1.72-1.42,1.38-1.2,3.01.2.9.64-.29,1.2,0-.07,1.82-1.09,2.96-.3,4.82,1.53-1.26,1.91-3.21,2.7-4.52,1.93,2.82-3.1,4.58-1.8,7.83,1.61.21,1.27-1.54,1.5-2.71,1.72-.68.99-3.82,3-4.21.83,3.07-1.54,5.26-2.7,7.53-1.07,2.08-2.77,5.66-5.1,6.93-.39-1.49.92-1.28.9-2.41-.01-.99-1.27-.74-1.5-1.51-1.79.99-.42,2.71-.9,4.21-.44-.26-1.16-.24-.9-1.2-.86.04-.55,1.26-.6,2.11-2.12-.28-1.74-3.08-3-4.22.09-1.61,1.78-1.63,1.5-3.61-.09-.41-.76-.25-1.2-.3.21-5.84-1.45-10.42-1.5-17.17-1.27.33-1.34,1.87-3,1.81.41-3.3,4.17-3.24,3.3-7.83-2.22,1.69-2.87,4.95-5.4,6.33-.04-2.75,2.84-3.84,2.4-6.03,2.61-1.59,3.54-4.89,5.41-7.23ZM113.98,155.44c.6.57,1.4-.37,1.5-1.2-.23-.07-.59-.01-.6-.3.17,0,.34-.24,0-.3-.27.64-.92.89-.9,1.81ZM114.28,159.95c1.56.54,1.71-3.13.6-3.31-.78.53-.61,2-.6,3.31ZM114.88,164.47c.72-.3,1.68-3.17.3-3.61-.83.84-1.18,2.56-.3,3.61ZM116.68,165.68c1.24-.54,2.41-2.68,1.2-3.92-.62,1.09-1.36,2.04-1.2,3.92ZM114.88,168.09c1.24.4,1.85-2.55.6-2.71-.84.26-.58,1.63-.6,2.71ZM117.88,168.09c.13-.38.39-.61.9-.6-.02-1.02.54-1.29-.3-1.81-.02.71-1.69,1.28-.9,1.81.02-.18.05-.35.3-.3v.6c-.17,0-.34.24,0,.3ZM114.28,169.59c.04-.4.04-2.18-.3-1.2-.04.4-.05,2.18.3,1.2ZM117.88,171.7c1.39-.02,1.74-1.06,1.8-2.41-.06-.34-.33-.47-.6-.6-.26,1.14-1.56,1.24-1.2,3.01ZM115.78,171.1c.28-.72,1.2-.8.9-2.11h-.9c0,.54-.81,1.76,0,2.11ZM118.78,176.52c.06-1.35.98-1.82,1.8-2.41-.17-.54-.16-1.25-.6-1.51-.53.93-3.63,2.88-1.2,3.92ZM114.88,174.41v1.81c1.21-.08,1.74-.86,1.8-2.11-.38-.02-.41-.39-.9-.3.04.55-.3.71-.9.6ZM119.08,178.03c.58.42.58,1.43,1.5,1.51.24-1.06,1.21-1.4,1.2-2.71-.45-.35-.35-1.26-1.2-1.21-.09,1.21-1.23,1.38-1.5,2.41ZM116.68,179.23c.86-.43,1.36-2.39,0-2.71-.48.8-1.53,2.22,0,2.71ZM115.18,181.64c.78-.82.67-2.42-.6-2.71-.54,1.04-.09,2.08.6,2.71Z"/>
    <path class="cls-2" d="M210.31,205.74c-.85.7-2.27.04-3.01-.3-2.56.64-3.43,4.58-6,4.21.93-2.18,3.27-2.95,4.2-5.12-2.89.62-3.09,3.93-6.3,4.22.43-2.38,2.69-2.92,4.2-4.22-1.78-1.34-3.83.16-4.8.91-2.27,1.74-3.26,5.56-6,6.32.03-1.78,1.66-1.95,2.1-3.31-2.03.77-4.61,3.6-7.2,4.82.64-2.76,3.64-3.54,5.41-5.12,1.24-1.11,1.67-2.7,3.3-3.31v.9c1.89-1.49,4.65-4.38,9.6-3.31,1.8.39,4.06,2.06,4.51,3.32Z"/>
    <path d="M76.61,326.65c0-3-.07-5.79-.21-8.38-.14-2.59-.47-4.94-1-7.02-.52-2.08-1.36-3.84-2.54-5.27,4.01,0,8.01-.13,12-.4,3.98-.26,7.97-.4,11.96-.4,2.76,0,5.22.48,7.38,1.44,2.17.95,3.88,2.35,5.13,4.21,1.26,1.86,1.9,4.18,1.9,6.96,0,2.1-.42,3.95-1.25,5.54-.82,1.6-1.94,2.95-3.35,4.04-1.41,1.08-2.99,1.9-4.75,2.44-1.77.53-3.58.79-5.46.79-2.06,0-4.06-.26-6.02-.77-1.96-.53-3.75-1.42-5.38-2.69.5,1.49,1.28,2.89,2.33,4.21,1.05,1.32,2.3,2.48,3.75,3.48,1.46.99,3.03,1.77,4.71,2.33,1.68.57,3.39.85,5.13.85,1.96,0,3.75-.35,5.38-1.06s2.93-1.55,3.92-2.54v12.9c-.28.17-.77.31-1.46.44-.68.13-1.41.22-2.17.29-.75.07-1.39.1-1.92.1-2.14,0-4.19-.41-6.15-1.21-1.96-.82-3.79-1.92-5.5-3.31-1.71-1.4-3.26-2.98-4.65-4.73-1.38-1.75-2.56-3.56-3.54-5.44-.99-1.88-1.74-3.71-2.27-5.5-.53-1.8-.79-3.44-.79-4.92.53.28,1.21.65,2.04,1.1.84.46,1.81.93,2.9,1.4,1.09.46,2.28.85,3.56,1.17,1.28.32,2.59.48,3.94.48,2.34,0,4.15-.55,5.42-1.65,1.26-1.11,1.9-2.55,1.9-4.31s-.71-3.32-2.13-4.5c-1.42-1.18-3.66-1.77-6.71-1.77-2.49,0-4.87.09-7.15.27-2.27.17-4.35.25-6.25.25v9.02c0,2.81.36,5.41,1.08,7.79.73,2.38,1.7,4.52,2.9,6.44,1.21,1.92,2.52,3.6,3.94,5.04,1.42,1.43,2.8,2.61,4.15,3.54h-18.5c1.18-1.43,2.03-3.19,2.54-5.27.53-2.08.86-4.42,1-7.02.14-2.61.21-5.4.21-8.38ZM83.36,293.93c.32-.33.94-.5,1.85-.5.76,0,1.61.13,2.54.38.94.25,1.82.59,2.63,1.02.82.42,1.42.93,1.81,1.54.39-.61.99-1.13,1.81-1.54.83-.43,1.73-.76,2.69-1,.97-.23,1.82-.35,2.56-.35.89,0,1.48.16,1.79.46-.67.28-1.4.76-2.19,1.44-.78.67-1.58,1.44-2.4,2.31-.81.86-1.6,1.74-2.38,2.63-.77.88-1.47,1.67-2.1,2.38-.53-.71-1.16-1.5-1.88-2.38-.71-.89-1.46-1.76-2.25-2.63-.78-.88-1.56-1.65-2.35-2.31-.78-.68-1.49-1.16-2.15-1.44Z"/>
    <path d="M124.42,347.32h-9.92c1.19-1.43,2.05-3.05,2.56-4.88.53-1.82.86-3.66,1-5.52.14-1.86.21-3.56.21-5.1,0-1.07-.04-2.27-.1-3.6-.07-1.34-.22-2.73-.46-4.15-.24-1.42-.61-2.79-1.13-4.13-.5-1.34-1.2-2.55-2.08-3.63h9.92c-.88,1.07-1.57,2.28-2.08,3.63-.52,1.33-.89,2.71-1.13,4.13-.22,1.42-.37,2.8-.44,4.15-.07,1.33-.1,2.54-.1,3.6,0,1.54.07,3.24.21,5.1.14,1.86.46,3.7.98,5.52.53,1.82,1.38,3.45,2.56,4.88ZM117.77,313.01c-.78,0-1.55-.11-2.31-.35-.75-.25-1.48-.64-2.19-1.17,2.39-.36,4.38-1.11,5.98-2.25,1.59-1.15,2.74-2.61,3.44-4.38l3.23,4.15c-.11.56-.54,1.16-1.27,1.79-.72.63-1.68,1.16-2.88,1.58-1.18.42-2.52.63-4,.63Z"/>
    <path d="M128.6,331.86c0-3.39.64-6.3,1.92-8.73,1.29-2.44,3.15-4.32,5.56-5.63,2.43-1.32,5.36-1.98,8.81-1.98,3,0,5.57.45,7.73,1.33,2.15.88,3.8,2.08,4.96,3.6,1.15,1.52,1.73,3.22,1.73,5.1,0,1.08-.18,1.92-.54,2.5-.35.57-.76.97-1.23,1.21-.47.24-.89.37-1.25.4-.35.03-.52.04-.52.04,0-.55-.23-1.16-.69-1.81-.46-.67-1.15-1.3-2.06-1.92-.91-.63-2.04-1.14-3.4-1.54-1.36-.4-2.95-.6-4.77-.6-4.6,0-8.05.66-10.35,1.96-2.31,1.29-3.46,3.3-3.46,6.02s1.15,4.79,3.46,6.1c2.3,1.31,5.76,1.96,10.35,1.96,1.82,0,3.41-.2,4.77-.6,1.36-.4,2.49-.91,3.4-1.52.92-.63,1.6-1.27,2.06-1.94.46-.68.69-1.28.69-1.81,0,0,.17.02.52.04.36.03.78.16,1.25.4.47.24.88.65,1.23,1.23.36.57.54,1.4.54,2.48,0,1.89-.58,3.6-1.73,5.13-1.16,1.52-2.81,2.72-4.96,3.6-2.16.88-4.73,1.31-7.73,1.31-3.45,0-6.39-.66-8.81-1.96-2.42-1.32-4.27-3.19-5.56-5.63-1.28-2.44-1.92-5.36-1.92-8.75ZM136.24,304.26c.33-.33.96-.5,1.88-.5.76,0,1.61.13,2.54.38.94.25,1.82.59,2.63,1.02.82.42,1.42.93,1.81,1.54.39-.61.99-1.13,1.81-1.54.83-.43,1.73-.76,2.69-1,.97-.23,1.82-.35,2.56-.35.89,0,1.48.16,1.77.46-.66.28-1.38.76-2.17,1.44-.78.67-1.58,1.44-2.4,2.31-.81.86-1.6,1.74-2.38,2.63-.77.88-1.47,1.67-2.1,2.38-.53-.71-1.16-1.5-1.88-2.38-.71-.89-1.46-1.76-2.25-2.63-.78-.88-1.56-1.65-2.35-2.31-.78-.68-1.5-1.16-2.17-1.44Z"/>
    <path d="M162.62,339.38c0-1.9.45-3.53,1.35-4.9.9-1.36,2.11-2.47,3.65-3.33,1.54-.88,3.25-1.51,5.13-1.92,1.89-.4,3.82-.6,5.81-.6,2.82,0,5.31.28,7.48.83,2.18.56,3.93,1.34,5.25,2.35-.16-1.57-.65-2.94-1.48-4.13-.83-1.19-2.12-2.11-3.85-2.77-1.74-.67-4.09-1-7.06-1-.88,0-1.83.03-2.88.08-1.03.06-2.04.18-3.04.35-.99.18-1.88.45-2.67.79-.78.33-1.37.78-1.77,1.33-.41.56-.51,1.23-.31,2.02-1.43.03-2.6-.34-3.5-1.13-.89-.79-1.33-2.03-1.33-3.71,0-1.51.55-2.88,1.65-4.1,1.11-1.23,2.8-2.22,5.06-2.96,2.28-.75,5.18-1.13,8.71-1.13,3.11,0,5.65.4,7.6,1.19,1.96.78,3.46,1.81,4.52,3.1,1.07,1.28,1.8,2.7,2.19,4.25.4,1.56.6,3.1.6,4.65,0,.25,0,.72.02,1.4.01.67.02,1.34.02,2.02v1.42c0,2.77.17,5.05.5,6.85.33,1.81.71,3.21,1.15,4.21.43,1,.8,1.71,1.13,2.13l.5.63h-5.67v-7.6c-1.32,2.58-3.28,4.64-5.88,6.17-2.58,1.51-5.81,2.27-9.67,2.27-1.77,0-3.44-.16-5.02-.48-1.58-.32-2.99-.82-4.23-1.5-1.24-.69-2.21-1.59-2.92-2.71-.7-1.13-1.04-2.48-1.04-4.08ZM181.04,331.28c-1.92,0-3.7.21-5.35.63-1.64.42-2.95,1-3.94,1.75-.99.74-1.48,1.61-1.48,2.63,0,1.22.59,2.1,1.79,2.63,1.19.52,2.8.77,4.81.77,3.28,0,6.09-.4,8.46-1.21,2.38-.82,4.39-2.11,6.04-3.88v-.38c-.66-.47-1.44-.92-2.35-1.35-.91-.44-2.01-.82-3.31-1.13-1.29-.3-2.85-.46-4.67-.46Z"/>
    <path d="M199.53,316.32h9.92c-.92,1.1-1.64,2.2-2.17,3.31-.52,1.1-.89,2.27-1.1,3.52-.22,1.24-.36,2.64-.42,4.21.22-.67.55-1.49,1-2.48.46-1,1.07-2.04,1.85-3.13.78-1.08,1.73-2.09,2.88-3.04,1.14-.96,2.49-1.73,4.06-2.33,1.57-.59,3.4-.9,5.5-.9,2.21,0,4.03.3,5.46.9,1.43.6,2.55,1.39,3.38,2.35.83.96,1.44,2.04,1.83,3.23.39,1.2.64,2.41.75,3.65.11,1.22.15,2.38.1,3.46s-.06,2-.06,2.75c0,1.88.03,3.54.1,4.98.07,1.45.21,2.77.44,3.96.23,1.18.61,2.31,1.13,3.38.51,1.06,1.21,2.12,2.08,3.19h-16c3.61-2.34,6.15-4.68,7.63-7,1.48-2.33,2.23-4.79,2.23-7.38,0-1.93-.53-3.57-1.58-4.94-1.04-1.38-2.49-2.43-4.33-3.17-1.85-.75-4-1.13-6.46-1.13-1.46,0-2.91.21-4.33.63-1.43.42-2.73,1.02-3.9,1.81-1.16.78-2.08,1.74-2.79,2.88-.7,1.14-1.04,2.45-1.04,3.92,0,2.58.73,5.04,2.21,7.38,1.47,2.32,4.01,4.66,7.63,7h-15.98c1.18-1.43,2.03-3.05,2.54-4.88.53-1.82.86-3.66,1-5.52.14-1.86.21-3.56.21-5.1s-.07-3.28-.21-5.13c-.14-1.84-.47-3.68-1-5.5-.52-1.82-1.36-3.44-2.54-4.88Z"/>
    <path d="M252.68,347.32c0-1.18-.22-2.61-.67-4.31-.45-1.69-1.07-3.52-1.88-5.48-.79-1.96-1.72-3.96-2.79-6.02-1.06-2.05-2.2-4.03-3.42-5.94-1.22-1.92-2.49-3.67-3.79-5.27-1.29-1.61-2.58-2.94-3.88-3.98h17.48c-.17.11-.49.33-.96.67-.46.33-.95.82-1.48,1.46-.53.63-.98,1.44-1.35,2.44-.36.99-.54,2.21-.54,3.67,0,.82.13,1.85.38,3.08.25,1.22.6,2.49,1.06,3.79.47,1.31,1.04,2.54,1.71,3.69.68,1.14,1.44,2.07,2.29,2.79.86.71,1.8,1.06,2.83,1.06s1.94-.35,2.79-1.06c.86-.72,1.63-1.65,2.29-2.79.68-1.15,1.26-2.38,1.73-3.69.47-1.3.83-2.57,1.08-3.79.25-1.23.38-2.26.38-3.08,0-1.46-.19-2.68-.56-3.67-.38-1-.83-1.81-1.35-2.44-.52-.64-1.01-1.13-1.48-1.46-.47-.33-.79-.55-.96-.67h17.48c-2.06,1.68-3.9,3.62-5.52,5.81-1.63,2.18-3.1,4.51-4.42,6.98-1.31,2.47-2.52,4.98-3.65,7.52-1.11,2.53-2.18,5.01-3.19,7.44-1.02,2.42-2.04,4.68-3.08,6.79-1.03,2.13-2.14,3.99-3.33,5.6-1.18,1.63-2.49,2.89-3.92,3.79-1.43.9-3.04,1.35-4.83,1.35-1.38,0-2.43-.1-3.17-.31-.74-.2-1.24-.39-1.52-.58-.27-.2-.4-.29-.4-.29v-8.77c.88.53,1.95.96,3.23,1.29,1.29.33,2.61.5,3.96.5s2.72-.2,3.96-.6c1.25-.41,2.26-1.06,3.04-1.98.79-.91,1.19-2.08,1.19-3.54h-4.75Z"/>
    <path d="M3.75,270.71c0-3-.07-5.79-.21-8.38-.14-2.59-.47-4.94-1-7.02-.52-2.08-1.36-3.84-2.54-5.27,3.79,0,7.57-.13,11.35-.4,3.78-.26,7.55-.4,11.33-.4,2.8,0,5.15.44,7.02,1.31,1.88.86,3.28,2.03,4.21,3.5.94,1.46,1.42,3.08,1.42,4.88,0,1.63-.33,3.02-1,4.19-.66,1.17-1.51,2.14-2.56,2.92-1.04.77-2.16,1.38-3.33,1.83-1.17.46-2.28.8-3.33,1.02-1.04.22-1.91.37-2.58.44-.67.06-1.02.08-1.04.08,1.26-.04,2.64.02,4.13.17,1.5.14,2.98.45,4.46.92,1.47.47,2.82,1.14,4.04,1.98,1.23.83,2.21,1.9,2.94,3.19.73,1.29,1.1,2.88,1.1,4.75,0,2.6-.64,4.77-1.9,6.5-1.25,1.74-2.96,3.05-5.13,3.94-2.16.88-4.61,1.31-7.38,1.31-3.96,0-7.92-.14-11.88-.4-3.96-.27-7.92-.4-11.88-.4,1.18-1.43,2.03-3.19,2.54-5.27.53-2.08.86-4.42,1-7.02.14-2.61.21-5.4.21-8.38ZM17.35,270.71H6.44v10.29c1.79.36,3.78.67,5.98.92,2.21.25,4.47.38,6.79.38,1.71,0,3.25-.17,4.63-.5s2.47-.9,3.29-1.71c.82-.82,1.23-1.92,1.23-3.29s-.38-2.4-1.13-3.21c-.75-.82-1.7-1.43-2.83-1.83-1.14-.42-2.34-.69-3.6-.83-1.25-.14-2.4-.21-3.44-.21ZM6.44,268.48c1.4,0,2.98.01,4.73.02,1.75.02,3.52-.03,5.31-.15,1.79-.11,3.44-.35,4.94-.73s2.71-.94,3.63-1.69c.93-.76,1.4-1.78,1.4-3.04,0-1.07-.3-1.86-.9-2.4-.58-.53-1.43-.86-2.52-1.02-1.08-.15-2.37-.23-3.85-.23-1.71,0-3.66.05-5.85.15-2.18.1-4.47.15-6.88.15v8.94Z"/>
    <path d="M40.63,283.44c0-1.9.45-3.53,1.35-4.9.9-1.36,2.11-2.47,3.65-3.33,1.54-.88,3.25-1.51,5.13-1.92,1.89-.4,3.82-.6,5.81-.6,2.82,0,5.31.28,7.48.83,2.18.56,3.93,1.34,5.25,2.35-.16-1.57-.65-2.94-1.48-4.13-.83-1.19-2.12-2.11-3.85-2.77-1.74-.67-4.09-1-7.06-1-.88,0-1.83.03-2.88.08-1.03.06-2.04.18-3.04.35-.99.18-1.88.45-2.67.79-.78.33-1.37.78-1.77,1.33-.41.56-.51,1.23-.31,2.02-1.43.03-2.6-.34-3.5-1.13-.89-.79-1.33-2.03-1.33-3.71,0-1.51.55-2.88,1.65-4.1,1.11-1.23,2.8-2.22,5.06-2.96,2.28-.75,5.18-1.13,8.71-1.13,3.11,0,5.65.4,7.6,1.19,1.96.78,3.46,1.81,4.52,3.1,1.07,1.28,1.8,2.7,2.19,4.25.4,1.56.6,3.1.6,4.65,0,.25,0,.72.02,1.4.01.67.02,1.34.02,2.02v1.42c0,2.77.17,5.05.5,6.85.33,1.81.71,3.21,1.15,4.21.43,1,.8,1.71,1.13,2.13l.5.63h-5.67v-7.6c-1.32,2.58-3.28,4.64-5.88,6.17-2.58,1.51-5.81,2.27-9.67,2.27-1.77,0-3.44-.16-5.02-.48-1.58-.32-2.99-.82-4.23-1.5-1.24-.69-2.21-1.59-2.92-2.71-.7-1.13-1.04-2.48-1.04-4.08ZM59.04,275.34c-1.92,0-3.7.21-5.35.63-1.64.42-2.95,1-3.94,1.75-.99.74-1.48,1.61-1.48,2.63,0,1.22.59,2.1,1.79,2.63,1.19.52,2.8.77,4.81.77,3.28,0,6.09-.4,8.46-1.21,2.38-.82,4.39-2.11,6.04-3.88v-.38c-.66-.47-1.44-.92-2.35-1.35-.91-.44-2.01-.82-3.31-1.13-1.29-.3-2.85-.46-4.67-.46Z"/>
    <path d="M77.53,291.38c1.18-1.43,2.03-3.05,2.54-4.88.53-1.82.86-3.66,1-5.52.14-1.86.21-3.56.21-5.1s-.07-3.28-.21-5.13c-.14-1.84-.47-3.68-1-5.5-.52-1.82-1.36-3.44-2.54-4.88h9.92c-.92,1.1-1.64,2.2-2.17,3.31-.52,1.1-.89,2.28-1.1,3.54-.22,1.25-.36,2.66-.42,4.23.22-.64.54-1.45.96-2.44.43-1,1.01-2.04,1.73-3.13.72-1.08,1.59-2.1,2.63-3.06,1.03-.97,2.23-1.76,3.63-2.38,1.4-.61,3-.92,4.79-.92,1.13,0,2.07.14,2.83.42.78.28,1.17.42,1.17.42v8.81s-.22-.11-.67-.35c-.43-.23-1.16-.47-2.19-.71-1.02-.23-2.41-.35-4.17-.35-1.93,0-3.72.36-5.35,1.08-1.64.71-2.96,1.76-3.96,3.15-.99,1.38-1.48,3.04-1.48,5,0,2.58.73,5.04,2.21,7.38,1.47,2.32,4.01,4.66,7.63,7h-15.98Z"/>
    <path d="M103.98,291.38c1.18-1.43,2.03-3.19,2.54-5.27.53-2.08.86-4.42,1-7.02.14-2.61.21-5.4.21-8.38s-.07-5.79-.21-8.38c-.14-2.59-.47-4.94-1-7.02-.52-2.08-1.36-3.84-2.54-5.27h18.17c-2.39,1.54-4.47,3.63-6.23,6.25-1.77,2.61-3.14,5.58-4.1,8.92-.96,3.33-1.44,6.89-1.44,10.67v5.17s.55.08,1.65.23c1.11.16,2.67.31,4.69.46,2.03.16,4.4.23,7.1.23,1.09,0,2.25-.02,3.46-.06,1.22-.04,2.4-.16,3.54-.35,1.14-.19,2.17-.51,3.1-.94.94-.43,1.69-1.02,2.25-1.77.55-.76.83-1.75.83-2.96,0-1.48-.37-2.73-1.1-3.75-.72-1.03-1.7-1.84-2.92-2.46-1.21-.63-2.56-1.07-4.04-1.35-1.49-.28-3-.42-4.54-.42-1.93,0-3.68.23-5.23.69-1.56.46-2.79,1.1-3.69,1.94-.89.82-1.33,1.77-1.33,2.83-.75-.39-1.29-.9-1.6-1.54-.32-.65-.48-1.55-.48-2.71,0-1.82.5-3.44,1.5-4.88,1.01-1.44,2.42-2.58,4.23-3.42,1.8-.84,3.92-1.27,6.35-1.27,2.55,0,4.8.43,6.73,1.27,1.93.83,3.55,2.01,4.85,3.52,1.3,1.5,2.29,3.24,2.96,5.21.67,1.96,1,4.07,1,6.33,0,3.2-.63,5.95-1.88,8.27-1.24,2.31-3.02,4.09-5.33,5.35-2.31,1.25-5.1,1.88-8.38,1.88h-20.13Z"/>
    <path d="M160.1,292.25c-3.45,0-6.39-.66-8.81-1.96-2.42-1.32-4.27-3.19-5.56-5.63-1.28-2.44-1.92-5.36-1.92-8.75s.64-6.29,1.92-8.71c1.29-2.43,3.15-4.3,5.56-5.6,2.43-1.32,5.36-1.98,8.81-1.98,3,0,5.56.5,7.69,1.5,2.13.99,3.75,2.27,4.88,3.85s1.69,3.3,1.69,5.15c0,1.32-.27,2.43-.81,3.31-.53.88-1.22,1.59-2.06,2.15-.83.56-1.73.98-2.69,1.27-.95.28-1.84.47-2.69.58-.83.11-1.52.18-2.06.19-.53.02-.79.02-.79.02h-16.83c.47,2.16,1.84,3.74,4.1,4.77,2.28,1.02,5.46,1.52,9.54,1.52,1.82,0,3.41-.2,4.77-.6,1.36-.4,2.49-.91,3.4-1.52.92-.63,1.6-1.27,2.06-1.94.46-.68.69-1.28.69-1.81,0,0,.17.02.52.04.36.03.78.16,1.25.4.47.24.88.65,1.23,1.23.36.57.54,1.4.54,2.48,0,1.89-.58,3.6-1.73,5.13-1.16,1.52-2.81,2.72-4.96,3.6-2.16.88-4.73,1.31-7.73,1.31ZM146.25,275.84h16.96s.21,0,.65-.02c.44-.01.98-.06,1.6-.15.64-.08,1.28-.23,1.92-.46.64-.22,1.17-.53,1.6-.94.44-.42.67-.96.67-1.63,0-.46-.14-.96-.42-1.5-.27-.54-.74-1.05-1.44-1.54-.7-.5-1.67-.9-2.92-1.21-1.25-.3-2.85-.46-4.81-.46-4.57,0-8.01.64-10.31,1.92-2.31,1.27-3.47,3.26-3.5,5.98Z"/>
    <path d="M177.84,291.38c1.18-1.43,2.03-3.05,2.54-4.88.53-1.82.86-3.66,1-5.52.14-1.86.21-3.56.21-5.1s-.07-3.28-.21-5.13c-.14-1.84-.47-3.68-1-5.5-.52-1.82-1.36-3.44-2.54-4.88h9.92c-.92,1.1-1.64,2.2-2.17,3.31-.52,1.1-.89,2.28-1.1,3.54-.22,1.25-.36,2.66-.42,4.23.22-.64.54-1.45.96-2.44.43-1,1.01-2.04,1.73-3.13.72-1.08,1.59-2.1,2.63-3.06,1.03-.97,2.23-1.76,3.63-2.38,1.4-.61,3-.92,4.79-.92,1.13,0,2.07.14,2.83.42.78.28,1.17.42,1.17.42v8.81s-.22-.11-.67-.35c-.43-.23-1.16-.47-2.19-.71-1.02-.23-2.41-.35-4.17-.35-1.93,0-3.72.36-5.35,1.08-1.64.71-2.96,1.76-3.96,3.15-.99,1.38-1.48,3.04-1.48,5,0,2.58.73,5.04,2.21,7.38,1.47,2.32,4.01,4.66,7.63,7h-15.98Z"/>
    <path d="M205.1,270.71c0-1.26.26-2.55.77-3.85.51-1.32,1.34-2.53,2.5-3.65,1.15-1.11,2.71-2.01,4.69-2.69,1.97-.68,4.42-1.02,7.33-1.02s5.59.45,7.73,1.33c2.15.88,3.8,2.08,4.96,3.6,1.17,1.52,1.75,3.22,1.75,5.1,0,1.08-.18,1.92-.54,2.5-.36.57-.78.97-1.25,1.21-.46.24-.87.37-1.23.4-.36.03-.54.04-.54.04,0-.55-.24-1.16-.71-1.81-.46-.67-1.15-1.3-2.06-1.92-.91-.63-2.04-1.14-3.42-1.54-1.36-.4-2.94-.6-4.73-.6-3.22,0-5.81.42-7.77,1.25-1.96.82-2.94,2-2.94,3.54,0,.75.23,1.33.71,1.75.47.41,1.06.69,1.77.85.72.17,1.46.25,2.21.25,1.48,0,2.78-.05,3.88-.17,1.09-.11,2.1-.24,3.02-.4.93-.15,1.85-.28,2.77-.38.93-.11,1.98-.17,3.15-.17,1.73,0,3.23.33,4.48,1,1.25.66,2.21,1.55,2.88,2.69.68,1.14,1.02,2.47,1.02,4,0,2.31-.68,4.22-2.02,5.73-1.35,1.5-3.2,2.62-5.54,3.35-2.33.72-4.99,1.08-7.98,1.08s-5.58-.43-7.73-1.29c-2.14-.88-3.79-2.05-4.94-3.54-1.14-1.5-1.71-3.15-1.71-4.94,0-1.38.31-2.5.94-3.38.64-.89,1.43-1.33,2.38-1.33,0,.95.35,1.79,1.06,2.54.72.74,1.67,1.37,2.83,1.9,1.18.52,2.48.91,3.9,1.19,1.42.28,2.81.42,4.19.42,1.88,0,3.61-.13,5.23-.4,1.61-.26,2.9-.69,3.88-1.29.98-.61,1.48-1.44,1.48-2.48,0-.89-.39-1.58-1.17-2.08-.77-.51-1.88-.77-3.33-.77-1.2,0-2.3.06-3.31.17-1.02.11-2.02.24-3.02.4-.99.14-2.05.27-3.19.38-1.13.11-2.42.17-3.88.17-1.99,0-3.6-.36-4.85-1.08-1.25-.73-2.17-1.65-2.75-2.75-.58-1.11-.88-2.21-.88-3.31Z"/>
    <path d="M238.84,291.38c1.18-1.43,2.03-3.19,2.54-5.27.53-2.08.86-4.42,1-7.02.14-2.61.21-5.4.21-8.38s-.07-5.79-.21-8.38c-.14-2.59-.47-4.94-1-7.02-.52-2.08-1.36-3.84-2.54-5.27h17.81c-2.02,1.29-3.81,2.97-5.4,5.04-1.58,2.07-2.89,4.43-3.92,7.06-1.02,2.63-1.73,5.45-2.15,8.48.28-.75.66-1.6,1.15-2.56.5-.96,1.14-1.93,1.92-2.92.79-1,1.74-1.92,2.85-2.75,1.13-.84,2.44-1.53,3.96-2.06,1.51-.53,3.23-.79,5.17-.79,2.21,0,4.03.3,5.46.9,1.43.6,2.55,1.39,3.38,2.35.83.96,1.44,2.04,1.83,3.23.39,1.2.64,2.41.75,3.65.11,1.22.15,2.38.1,3.46s-.06,2-.06,2.75c0,1.88.03,3.54.1,4.98.07,1.45.21,2.77.44,3.96.23,1.18.61,2.31,1.13,3.38.51,1.06,1.21,2.12,2.08,3.19h-15.98c3.59-2.34,6.13-4.68,7.6-7,1.48-2.33,2.23-4.79,2.23-7.38,0-1.93-.53-3.57-1.58-4.94-1.04-1.38-2.49-2.43-4.33-3.17-1.85-.75-3.99-1.13-6.44-1.13-1.47,0-2.93.21-4.35.63-1.43.42-2.73,1.02-3.9,1.81-1.16.78-2.08,1.74-2.79,2.88-.7,1.14-1.04,2.45-1.04,3.92,0,2.58.73,5.04,2.21,7.38,1.47,2.32,4.01,4.66,7.63,7h-15.85Z"/>
    <path d="M294.3,292.21c-2.32,0-4.49-.37-6.52-1.1-2.03-.75-3.81-1.83-5.35-3.25-1.54-1.43-2.75-3.15-3.63-5.15-.86-2.01-1.29-4.29-1.29-6.83s.43-4.81,1.29-6.81c.88-2.01,2.08-3.72,3.63-5.13,1.54-1.42,3.32-2.49,5.35-3.23,2.03-.75,4.2-1.13,6.52-1.13s4.47.38,6.5,1.13c2.03.74,3.81,1.81,5.35,3.23,1.54,1.41,2.74,3.11,3.6,5.13.88,2,1.31,4.27,1.31,6.81s-.44,4.82-1.31,6.83c-.86,2-2.06,3.72-3.6,5.15-1.54,1.42-3.33,2.5-5.35,3.25-2.03.73-4.2,1.1-6.5,1.1ZM279.9,275.84c0,1.85.63,3.37,1.9,4.56,1.28,1.18,2.99,2.06,5.15,2.65,2.17.57,4.6.85,7.31.85s5.13-.28,7.31-.85c2.18-.58,3.91-1.46,5.19-2.65,1.28-1.19,1.92-2.71,1.92-4.56s-.64-3.34-1.92-4.5c-1.28-1.17-3.01-2.03-5.19-2.58-2.18-.57-4.62-.85-7.31-.85s-5.15.29-7.31.85c-2.16.56-3.87,1.42-5.15,2.58-1.27,1.16-1.9,2.66-1.9,4.5Z"/>
    <path d="M314.38,301.71c1.18-1.43,2.03-3.19,2.54-5.27.53-2.08.86-4.43,1-7.02.14-2.61.21-5.4.21-8.38s-.07-5.79-.21-8.38c-.14-2.59-.47-4.94-1-7.02-.52-2.08-1.36-3.84-2.54-5.27h20.13c3.28,0,6.07.64,8.38,1.9,2.32,1.25,4.09,3.04,5.33,5.35,1.25,2.31,1.88,5.06,1.88,8.25,0,2.27-.33,4.39-1,6.35-.67,1.96-1.66,3.7-2.96,5.21-1.31,1.5-2.93,2.68-4.85,3.52-1.93.83-4.18,1.25-6.73,1.25s-4.55-.42-6.35-1.25c-1.81-.84-3.22-1.99-4.23-3.44-1-1.46-1.5-3.08-1.5-4.88,0-1.15.16-2.05.48-2.69.32-.65.85-1.17,1.6-1.56,0,1.07.44,2.02,1.33,2.83.9.81,2.13,1.45,3.69,1.92,1.55.47,3.3.71,5.23.71,1.54,0,3.05-.14,4.54-.42,1.48-.28,2.83-.72,4.04-1.33,1.22-.63,2.19-1.44,2.92-2.46.73-1.03,1.1-2.28,1.1-3.77,0-1.21-.28-2.19-.83-2.94-.56-.76-1.31-1.36-2.25-1.79-.93-.43-1.97-.74-3.1-.94-1.14-.19-2.32-.31-3.54-.35-1.21-.04-2.36-.06-3.46-.06-2.71,0-5.08.08-7.1.23-2.02.16-3.58.31-4.69.46-1.1.16-1.65.23-1.65.23v5.17c0,3.75.48,7.3,1.44,10.65.97,3.35,2.34,6.32,4.1,8.92,1.76,2.61,3.84,4.7,6.23,6.27h-18.17Z"/>
  </g>
</svg>