<?xml version="1.0" encoding="iso-8859-1"?>
<!-- Generator: Adobe Illustrator 16.0.0, SVG Export Plug-In . SVG Version: 6.00 Build 0)  -->
<!DOCTYPE svg PUBLIC "-//W3C//DTD SVG 1.1//EN" "http://www.w3.org/Graphics/SVG/1.1/DTD/svg11.dtd">
<svg version="1.1" xmlns="http://www.w3.org/2000/svg" xmlns:xlink="http://www.w3.org/1999/xlink" x="0px" y="0px" width="512px"
	 height="512px" viewBox="0 0 512 512" style="enable-background:new 0 0 512 512;" xml:space="preserve">
<g id="A59__x2C_Beauty__x2C_Massage__x2C_Oil__x2C_Spa__x2C_Yoga">
	<g>
		<path d="M466,456H366v-50v-70V216.5c0-26.167-16.7-48.5-40-56.918V126c0-5.523-4.478-10-10-10h-20V86c0-5.523-4.478-10-10-10h-30
			V56h80c12.896,0,12.896-20,0-20H216c-12.897,0-12.897,20,0,20h20v20h-10c-5.523,0-10,4.477-10,10v30h-20c-5.523,0-10,4.477-10,10
			v30.931c-28.37,4.988-50,29.792-50,59.569V336v70v50H46c-12.897,0-12.897,20,0,20h100h210h110C478.896,476,478.896,456,466,456z
			 M156,346h91.354c0.013,0,0.027,0,0.04,0h9.226c0.014,0,0.028,0,0.042,0H346v50H156V346z M212.98,310.893
			c-8.095-8.104-13.27-18.34-14.706-28.629c21.625,2.996,40.312,21.722,43.324,43.335
			C231.265,324.17,221.081,318.984,212.98,310.893C204.885,302.789,221.081,318.984,212.98,310.893z M262.415,325.6
			c3.015-21.61,21.717-40.345,43.339-43.336C302.738,303.865,284.036,322.618,262.415,325.6
			C263.851,315.309,272.758,324.174,262.415,325.6z M236,96h40v20h-40V96z M206,136h20h60h20v20h-0.5H206V136z M196.5,176h109
			c22.332,0,40.5,18.168,40.5,40.5V326h-41.835c8.967-8.642,15.761-19.505,19.306-31.467c2.521-8.51,7.383-28.769-4.856-32.121
			c-11.567-3.17-26.767,1.637-37.016,6.86c-12.198,6.218-22.519,15.894-29.589,27.609c-6.678-11.073-16.247-20.312-27.581-26.546
			c-10.657-5.862-26.744-11.285-39.014-7.924c-11.646,3.189-7.621,21.688-5.445,30.017c3.338,12.772,10.394,24.43,19.88,33.571H156
			V216.5C156,194.168,174.168,176,196.5,176z M156,456v-40h190v40H156z" fill="#A8907B"/>
		<path d="M346,126c0,12.897,20,12.897,20,0V86c0-12.897-20-12.897-20,0V126z" fill="#A8907B"/>
		<path d="M396,186c5.522,0,10-4.477,10-10v-40c0-12.897-20-12.897-20,0v40C386,181.523,390.478,186,396,186z" fill="#A8907B"/>
		<path d="M66,236c16.33,0,30-13.67,30-30s-13.67-30-30-30s-30,13.67-30,30S49.67,236,66,236z M66,196c12.894,0,12.894,20,0,20
			S53.106,196,66,196z" fill="#A8907B"/>
		<path d="M436,396c21.773,0,40-18.227,40-40s-18.227-40-40-40s-40,18.227-40,40S414.227,396,436,396z M436,336
			c25.787,0,25.787,40,0,40S410.213,336,436,336z" fill="#A8907B"/>
	</g>
</g>
<g id="Layer_1">
</g>
</svg>
