<?xml version="1.0" encoding="UTF-8"?>
<!DOCTYPE svg PUBLIC "-//W3C//DTD SVG 1.1//EN" "http://www.w3.org/Graphics/SVG/1.1/DTD/svg11.dtd">
<!-- Creator: CorelDRAW -->
<svg xmlns="http://www.w3.org/2000/svg" xml:space="preserve" width="1.70666in" height="1.70666in" version="1.1" style="shape-rendering:geometricPrecision; text-rendering:geometricPrecision; image-rendering:optimizeQuality; fill-rule:evenodd; clip-rule:evenodd"
viewBox="0 0 1707 1707"
 xmlns:xlink="http://www.w3.org/1999/xlink">
 <defs>
  <style type="text/css">
   <![CDATA[
    .fil0 {fill:#A8907B}
   ]]>
  </style>
 </defs>
 <g id="Layer_x0020_1">
  <metadata id="CorelCorpID_0Corel-Layer"/>
  <g id="_496443624">
   <g>
    <path class="fil0" d="M1443 1674l-1313 0c-68,0 -123,-56 -123,-124l0 -99c0,-13 10,-24 23,-24l1513 0c13,0 23,11 23,24l0 99c0,68 -55,124 -123,124zm-1389 -200l0 76c0,43 34,77 76,77l1313 0c42,0 76,-34 76,-77l0 -76 -1465 0z"/>
   </g>
   <g>
    <path class="fil0" d="M1683 1474l-140 0c-13,0 -24,-11 -24,-23 0,-13 11,-24 24,-24l140 0c13,0 24,11 24,24 0,12 -11,23 -24,23z"/>
   </g>
   <g>
    <g>
     <g>
      <path class="fil0" d="M1113 846l0 0c-8,0 -15,-4 -19,-10 -21,-32 -50,-57 -84,-74 -6,-3 -11,-8 -13,-15 -1,-6 0,-13 4,-19 25,-38 61,-69 102,-89 6,-4 14,-4 20,0 42,20 77,51 103,89 3,6 5,13 3,19 -2,7 -6,12 -12,15 -34,17 -63,42 -84,74 -5,6 -12,10 -20,10zm-58 -112c22,14 41,31 58,51 17,-20 37,-37 59,-51 -17,-19 -37,-36 -59,-48 -22,12 -42,29 -58,48z"/>
     </g>
     <g>
      <path class="fil0" d="M1113 1081l0 0c-12,0 -22,-9 -23,-21 -3,-38 -15,-75 -36,-107 -3,-4 -4,-9 -4,-14 3,-41 14,-79 35,-114 49,-86 145,-138 244,-131 8,0 14,4 18,10 26,38 41,83 44,129 0,7 -2,13 -7,18 -5,5 -11,7 -18,7 -42,-3 -85,7 -122,28 -63,36 -103,101 -108,174 0,12 -11,21 -23,21zm-16 -147c6,10 11,20 16,30 22,-49 60,-90 108,-118 37,-21 78,-33 120,-35 -4,-25 -13,-49 -26,-71 -78,-1 -151,41 -190,108 -15,27 -25,56 -28,86z"/>
     </g>
     <g>
      <path class="fil0" d="M1400 1096c-2,0 -3,0 -5,0 -12,-3 -24,-4 -36,-4l-246 0c-7,0 -13,-3 -17,-7 -4,-5 -7,-11 -7,-17 2,-93 51,-176 132,-222 40,-23 85,-35 131,-35 52,0 103,15 146,44 6,4 10,10 10,18 6,83 -29,165 -93,218 -4,4 -9,5 -15,5zm-262 -51l221 0c11,0 23,1 34,3 45,-41 70,-100 69,-161 -33,-19 -71,-30 -110,-30 -38,0 -75,10 -108,29 -59,34 -98,93 -106,159z"/>
     </g>
     <g>
      <path class="fil0" d="M1073 964c-7,0 -15,-4 -19,-11 -19,-27 -43,-50 -72,-67 -37,-21 -80,-31 -122,-28 -6,0 -13,-2 -18,-7 -5,-5 -7,-11 -7,-18 3,-46 19,-91 44,-129 4,-6 11,-10 18,-10 94,-6 184,38 236,116 5,8 5,18 0,26 -3,4 -6,8 -8,12 -17,29 -26,61 -28,94 -1,10 -8,18 -18,21 -2,0 -4,1 -6,1zm-188 -153c42,2 84,14 121,35 19,11 37,25 53,40 6,-21 14,-42 26,-61 0,-1 0,-1 0,-1 -41,-54 -105,-84 -173,-84 -13,22 -22,46 -27,71z"/>
     </g>
     <g>
      <path class="fil0" d="M1113 1092l-292 0c-6,0 -11,-2 -16,-6 -60,-53 -92,-133 -87,-213 0,-8 4,-14 10,-18 44,-29 94,-44 147,-44 45,0 91,12 131,35 76,44 125,123 130,211 0,1 0,2 0,3 0,3 0,6 0,9 0,13 -11,23 -23,23zm-283 -47l258 0c-8,-66 -47,-125 -106,-159 -33,-19 -70,-29 -107,-29 -40,0 -77,11 -111,30 0,60 24,117 66,158z"/>
     </g>
    </g>
    <g>
     <path class="fil0" d="M164 1474l-141 0c-12,0 -23,-11 -23,-23 0,-13 11,-24 23,-24l141 0c13,0 23,11 23,24 0,12 -10,23 -23,23z"/>
    </g>
    <g>
     <path class="fil0" d="M818 1474l-527 0c-13,0 -24,-11 -24,-23l0 -813c0,-46 31,-84 77,-96l504 -124c29,-7 59,0 83,19 23,19 36,46 36,76l0 205c0,7 -3,14 -8,18 -5,4 -12,6 -18,6 -10,-2 -20,-2 -29,-2 -18,29 -28,62 -30,96 -1,12 -10,21 -22,22 -34,2 -67,12 -96,29 0,62 25,121 70,162 6,5 10,12 10,20 0,13 -10,23 -23,23 0,0 0,0 0,0l-3 0c-92,0 -167,75 -167,168 0,92 75,167 167,167 13,0 24,11 24,24 0,12 -11,23 -24,23zm-504 -47l371 0c-49,-39 -81,-100 -81,-167 0,-103 72,-189 168,-210 -38,-50 -58,-113 -54,-177 0,-7 4,-14 10,-18 33,-22 70,-36 109,-42 6,-39 20,-76 42,-109 4,-6 11,-10 18,-10 8,-1 16,-1 23,-1l0 -180c0,-16 -6,-29 -18,-40 -13,-10 -28,-14 -42,-10l-505 125c-24,6 -41,26 -41,50l0 789zm623 -560l-9 -3c0,0 0,0 0,0 -2,-1 -4,-1 -5,-1 -1,0 -1,0 -1,0 -2,-1 -3,-1 -5,-2 0,0 -1,0 -1,0 -4,0 -8,-1 -12,-2 -11,-1 -20,-11 -20,-23 0,-1 0,-2 1,-3 1,-13 13,-22 26,-20 5,1 9,2 14,3 0,0 0,0 1,0 2,0 4,0 6,1 0,0 1,0 1,0 2,1 4,1 7,2 0,0 0,0 0,0 0,0 0,0 0,0l4 1c0,0 0,0 0,0 0,0 0,0 0,0l0 0c2,1 4,1 6,2l0 0c0,0 0,0 0,0l0 1c9,5 14,15 11,26 -3,11 -13,17 -24,17l0 1z"/>
    </g>
    <g>
     <path class="fil0" d="M617 522c-13,0 -23,-10 -23,-23l0 -107c0,-13 10,-23 23,-23 13,0 24,10 24,23l0 107c0,13 -11,23 -24,23z"/>
    </g>
    <g>
     <path class="fil0" d="M617 415c-81,0 -147,-65 -147,-146 0,-56 56,-130 101,-189 10,-14 20,-26 27,-37 5,-6 12,-10 19,-10l0 0c8,0 15,4 19,10 8,11 17,23 27,37 45,59 101,133 101,189 0,81 -66,146 -147,146zm0 -319c-3,4 -6,8 -9,12 -36,48 -91,120 -91,161 0,55 45,100 100,100 55,0 100,-45 100,-100 0,-41 -54,-113 -91,-161 -3,-4 -6,-8 -9,-12z"/>
    </g>
    <g>
     <path class="fil0" d="M1359 1474l-541 0c-118,0 -214,-96 -214,-214 0,-119 96,-215 214,-215l541 0c118,0 214,96 214,215 0,118 -96,214 -214,214zm-541 -382c-92,0 -167,75 -167,168 0,92 75,167 167,167l541 0c92,0 167,-75 167,-167 0,-93 -75,-168 -167,-168l-541 0z"/>
    </g>
    <g>
     <path class="fil0" d="M1330 1318l-402 0c-75,0 -136,-61 -136,-136 0,-75 61,-137 136,-137 13,0 24,11 24,24 0,12 -11,23 -24,23 -49,0 -90,40 -90,90 0,49 41,90 90,90l402 0c12,0 23,10 23,23 0,13 -11,23 -23,23z"/>
    </g>
   </g>
  </g>
 </g>
</svg>
