<?xml version="1.0" encoding="UTF-8"?>
<!DOCTYPE svg PUBLIC "-//W3C//DTD SVG 1.1//EN" "http://www.w3.org/Graphics/SVG/1.1/DTD/svg11.dtd">
<!-- Creator: CorelDRAW -->
<svg xmlns="http://www.w3.org/2000/svg" xml:space="preserve" width="530px" height="530px" version="1.1" style="shape-rendering:geometricPrecision; text-rendering:geometricPrecision; image-rendering:optimizeQuality; fill-rule:evenodd; clip-rule:evenodd"
viewBox="0 0 530 530"
 xmlns:xlink="http://www.w3.org/1999/xlink">
 <defs>
  <style type="text/css">
   <![CDATA[
    .fil0 {fill:#A8907B}
   ]]>
  </style>
 </defs>
 <g id="Layer_x0020_1">
  <metadata id="CorelCorpID_0Corel-Layer"/>
  <path class="fil0" d="M455 437c-18,0 -34,-12 -38,-30l-36 0c1,15 2,31 6,47 1,7 -4,12 -10,12l-226 0c-6,0 -11,-6 -10,-11 4,-17 5,-33 6,-48l-36 0c-4,18 -20,30 -38,30 -22,0 -40,-17 -40,-39 0,-22 18,-40 40,-40 18,0 34,13 38,30l35 0c-1,-41 -12,-72 -16,-84l-59 0c-6,0 -10,-4 -10,-9l0 -53c0,0 0,0 0,0 1,-32 13,-61 38,-85l-22 -12c-12,13 -32,16 -48,7 -19,-11 -26,-36 -15,-54 11,-19 36,-26 55,-15 15,9 23,28 18,45l27 16c4,-3 8,-5 12,-8 27,-17 54,-25 61,-26 8,-6 14,-19 16,-38 0,-4 4,-8 9,-8l104 0c5,0 9,4 9,8 2,19 8,32 16,38 7,1 34,9 61,26 4,3 9,6 13,9l28 -17c-7,-25 12,-50 38,-50 14,0 28,7 35,20 15,26 -4,59 -35,59 -11,0 -21,-4 -28,-12l-23 13c24,24 36,52 37,84 0,0 0,0 0,0l0 53c0,5 -4,9 -10,9l-59 0c-4,12 -15,43 -16,84l35 0c4,-17 20,-30 38,-30 22,0 40,18 40,40 0,22 -18,39 -40,39zm-93 -30l-47 0c-5,0 -9,-4 -9,-9 0,-6 4,-10 9,-10l47 0c2,-53 18,-90 21,-97 1,-4 4,-22 6,-48 0,-5 4,-9 10,-9 5,0 9,5 9,10 -1,18 -3,32 -4,41l44 0 0 -43c-1,-32 -16,-56 -35,-74l-48 28c-5,2 -11,1 -13,-4 -3,-4 -1,-10 3,-13l41 -24c-29,-20 -60,-27 -61,-27 -1,0 -2,-1 -2,-1 -13,-7 -22,-22 -26,-44l-86 0c-4,22 -13,37 -26,44 0,0 -1,1 -2,1 -4,1 -33,8 -60,27l42 24c8,5 5,18 -5,18 -2,0 -3,0 -5,-1l-49 -29c-23,21 -35,46 -36,75l0 43 44 0c-1,-9 -3,-23 -4,-41 0,-5 4,-10 9,-10 6,0 10,4 10,9 1,27 5,44 6,48 3,7 19,44 21,97l47 0c5,0 9,4 9,10 0,5 -4,9 -9,9l-47 0c0,13 -2,26 -4,40l204 0c-2,-14 -4,-27 -4,-40zm-289 -30c-12,0 -21,10 -21,21 0,11 9,20 21,20 11,0 20,-9 20,-20 0,-11 -9,-21 -20,-21zm-24 -280c-8,0 -14,4 -18,10 -8,14 2,31 18,31 7,0 14,-4 17,-10l0 0c8,-15 -2,-31 -17,-31zm415 31c6,10 18,13 28,7 9,-6 13,-18 7,-28 -9,-16 -33,-12 -37,5 -2,5 -1,11 2,16zm-29 270c0,11 9,20 20,20 12,0 21,-9 21,-20 0,-11 -9,-21 -21,-21 -11,0 -20,10 -20,21z"/>
 </g>
</svg>
