<?xml version="1.0" encoding="iso-8859-1"?>
<!-- Generator: Adobe Illustrator 16.0.0, SVG Export Plug-In . SVG Version: 6.00 Build 0)  -->
<!DOCTYPE svg PUBLIC "-//W3C//DTD SVG 1.1//EN" "http://www.w3.org/Graphics/SVG/1.1/DTD/svg11.dtd">
<svg version="1.1" xmlns="http://www.w3.org/2000/svg" xmlns:xlink="http://www.w3.org/1999/xlink" x="0px" y="0px" width="520px"
	 height="520px" viewBox="0 0 520 520" style="enable-background:new 0 0 520 520;" xml:space="preserve">
<g id="_x36_8_x2C__Relax_x2C__Spa_x2C__Stone_x2C__Massage">
	<g>
		<path d="M465,396.25h-8.585c8.321-7.336,13.585-18.062,13.585-30c0-22.056-17.944-40-40-40h-35.539
			c14.043-13.741,14.063-36.239,0-50H417.5c15.163,0,27.5-12.337,27.5-27.5c0-15.164-12.337-27.5-27.5-27.5h-42.514
			c3.146-4.181,5.014-9.376,5.014-15c0-13.785-11.215-25-25-25H250c-13.785,0-25,11.215-25,25s11.215,25,25,25h21.303
			c-8.41,10.169-8.403,24.838,0,35H240c-19.299,0-35,15.701-35,35s15.701,35,35,35h3.584c-18.133,15.987-18.092,44.049,0,60h-43.598
			c10.001-13.294,4.428-32.582-11.284-38.436C192.616,353.4,195,347.6,195,341.25c0-13.785-11.215-25-25-25h-60
			c-13.785,0-25,11.215-25,25c0,5.624,1.868,10.818,5.014,15H75c-13.785,0-25,11.215-25,25c0,5.624,1.868,10.818,5.014,15H55
			c-16.542,0-30,13.458-30,30s13.458,30,30,30h5V458c0,15.577,12.673,28.25,28.25,28.25h93.5c15.577,0,28.25-12.673,28.25-28.25
			v-1.75h105V458c0,15.577,12.673,28.25,28.25,28.25h93.5c15.577,0,28.25-12.673,28.25-28.25v-1.75c16.542,0,30-13.458,30-30
			S481.542,396.25,465,396.25z M235,206.25c0-8.271,6.729-15,15-15h105c8.271,0,15,6.729,15,15s-6.729,15-15,15
			c-24.603,0-85.196,0-105,0C241.729,221.25,235,214.521,235,206.25z M275,248.75c0-9.649,7.851-17.5,17.5-17.5
			c15.123,0,109.777,0,125,0c9.649,0,17.5,7.851,17.5,17.5s-7.851,17.5-17.5,17.5c-22.597,0-93.188,0-125,0
			C282.851,266.25,275,258.399,275,248.75z M240,326.25c-13.785,0-25-11.215-25-25s11.215-25,25-25c27.596,0,98.405,0,130,0
			c13.785,0,25,11.215,25,25s-11.215,25-25,25H269.999H240z M240,366.25c0-16.542,13.458-30,29.999-30c15.399,0,131.847,0,160.001,0
			c16.542,0,30,13.458,30,30s-13.458,30-30,30H269.999C253.458,396.25,240,382.792,240,366.25z M95,341.25c0-8.271,6.729-15,15-15
			h60c8.271,0,15,6.729,15,15s-6.729,15-15,15h-60C101.729,356.25,95,349.521,95,341.25z M60,381.25c0-8.271,6.729-15,15-15
			c10.906,0,91.854,0,105,0c8.271,0,15,6.729,15,15s-6.729,15-15,15H75C66.729,396.25,60,389.521,60,381.25z M200,458
			c0,10.063-8.187,18.25-18.25,18.25h-93.5C78.187,476.25,70,468.063,70,458v-1.75h130V458z M455,458
			c0,10.063-8.187,18.25-18.25,18.25h-93.5c-10.063,0-18.25-8.187-18.25-18.25v-1.75h130V458z M465,446.25
			c-140.698,0-265.572,0-410,0c-11.028,0-20-8.972-20-20s8.972-20,20-20c121.955,0,288.269,0,410,0c11.028,0,20,8.972,20,20
			S476.028,446.25,465,446.25z" fill="#A8907B"/>
		<path d="M50,256.25h135c2.761,0,5-2.239,5-5s-2.239-5-5-5H50c-5.514,0-10-4.486-10-10s4.486-10,10-10h70c11.028,0,20-8.972,20-20
			s-8.972-20-20-20h-15c-11.028,0-20-8.972-20-20c0-2.761-2.239-5-5-5s-5,2.239-5,5c0,16.542,13.458,30,30,30h15
			c5.514,0,10,4.486,10,10s-4.486,10-10,10H50c-11.028,0-20,8.972-20,20S38.972,256.25,50,256.25z" fill="#A8907B"/>
		<path d="M445,186.25c13.785,0,25-11.215,25-25s-11.215-25-25-25s-25,11.215-25,25S431.215,186.25,445,186.25z M445,146.25
			c8.271,0,15,6.729,15,15s-6.729,15-15,15s-15-6.729-15-15S436.729,146.25,445,146.25z" fill="#A8907B"/>
		<path d="M140,121.25c19.299,0,35-15.701,35-35s-15.701-35-35-35s-35,15.701-35,35S120.701,121.25,140,121.25z M140,61.25
			c13.785,0,25,11.215,25,25s-11.215,25-25,25s-25-11.215-25-25S126.215,61.25,140,61.25z" fill="#A8907B"/>
		<circle cx="412.5" cy="46.25" r="7.5" fill="#A8907B"/>
		<circle cx="462.5" cy="283.75" r="7.5" fill="#A8907B"/>
		<circle cx="342.5" cy="128.75" r="7.5" fill="#A8907B"/>
		<circle cx="212.5" cy="88.75" r="7.5" fill="#A8907B"/>
		<circle cx="182.5" cy="168.75" r="7.5" fill="#A8907B"/>
		<circle cx="67.5" cy="68.75" r="7.5" fill="#A8907B"/>
		<circle cx="72.5" cy="293.75" r="7.5" fill="#A8907B"/>
		<path d="M350,366.25h-70c-2.762,0-5,2.238-5,5s2.238,5,5,5h70c2.762,0,5-2.238,5-5S352.762,366.25,350,366.25z" fill="#A8907B"/>
		<path d="M390,366.25h-20c-2.762,0-5,2.238-5,5s2.238,5,5,5h20c2.762,0,5-2.238,5-5S392.762,366.25,390,366.25z" fill="#A8907B"/>
	</g>
</g>
<g id="Layer_1">
</g>
</svg>
