<?xml version="1.0" encoding="UTF-8"?>
<!DOCTYPE svg PUBLIC "-//W3C//DTD SVG 1.1//EN" "http://www.w3.org/Graphics/SVG/1.1/DTD/svg11.dtd">
<!-- Creator: CorelDRAW -->
<svg xmlns="http://www.w3.org/2000/svg" xml:space="preserve" width="1.70666in" height="1.70666in" version="1.1" style="shape-rendering:geometricPrecision; text-rendering:geometricPrecision; image-rendering:optimizeQuality; fill-rule:evenodd; clip-rule:evenodd"
viewBox="0 0 1707 1707"
 xmlns:xlink="http://www.w3.org/1999/xlink">
 <defs>
  <style type="text/css">
   <![CDATA[
    .fil0 {fill:#A8907B}
   ]]>
  </style>
 </defs>
 <g id="Layer_x0020_1">
  <metadata id="CorelCorpID_0Corel-Layer"/>
  <g id="_322202096">
   <g>
    <g>
     <path class="fil0" d="M1375 1556l-1043 0c-13,0 -23,-10 -23,-23l0 -303c0,-145 104,-178 214,-213 33,-10 68,-21 103,-36l76 -32 0 -91c0,-8 4,-16 12,-20 7,-4 16,-4 23,0 35,21 75,32 116,32 41,0 81,-11 116,-32 8,-4 17,-4 24,0 7,4 12,12 12,20l0 91 76 32c35,15 69,26 103,36 110,35 214,68 214,213l0 303c0,13 -11,23 -23,23zm-1020 -46l996 0 0 -280c0,-106 -62,-130 -181,-168 -35,-11 -70,-22 -107,-38l-91 -38c-8,-3 -14,-12 -14,-21l0 -69c-66,28 -143,28 -209,0l0 69c0,9 -6,18 -15,21l-90 38c-37,16 -73,27 -107,38 -119,38 -182,62 -182,168l0 280 0 0z"/>
    </g>
    <g>
     <path class="fil0" d="M1166 1556l-625 0c-13,0 -23,-10 -23,-23l0 -314c0,-42 34,-76 76,-76l519 0c42,0 76,34 76,76l0 314c0,13 -10,23 -23,23zm-602 -46l578 0 0 -291c0,-16 -13,-30 -29,-30l-519 0c-16,0 -30,14 -30,30l0 291z"/>
    </g>
    <g>
     <path class="fil0" d="M853 917c-151,0 -274,-123 -274,-274l0 -142c0,-12 8,-21 19,-23 10,-2 32,-25 49,-44 35,-37 83,-88 149,-116 40,-17 84,-46 113,-67 3,-2 5,-4 7,-6 7,-5 15,-6 23,-3 70,25 160,90 188,256 0,2 0,3 0,4l0 141c0,151 -123,274 -274,274zm-227 -401l0 127c0,125 102,227 227,227 126,0 228,-102 228,-227l0 -139c-19,-109 -68,-181 -147,-214 -31,22 -77,52 -119,71 -57,24 -100,69 -134,105 -21,23 -38,41 -55,50z"/>
    </g>
    <g>
     <path class="fil0" d="M603 524c-6,0 -11,-2 -15,-5 -6,-5 -9,-11 -9,-18 0,-27 -2,-54 -3,-81 -2,-24 -4,-50 -4,-76 -2,-157 126,-310 284,-340 12,-3 24,-4 36,-4 63,0 113,34 131,90 17,53 3,134 -87,198 -31,23 -78,54 -121,73 -57,24 -100,69 -134,105 -29,31 -50,53 -74,58 -2,0 -3,0 -4,0zm289 -477c-9,0 -18,1 -27,2 -137,27 -248,159 -246,295 0,25 2,49 3,73 1,13 2,27 3,40 7,-7 15,-15 22,-23 35,-37 83,-88 149,-116 40,-17 84,-46 113,-67 70,-51 82,-109 69,-147 -11,-36 -43,-57 -86,-57z"/>
    </g>
    <g>
     <path class="fil0" d="M1104 526c-2,0 -4,-1 -6,-1 -9,-3 -15,-10 -17,-19 -19,-115 -72,-190 -158,-221 -8,-2 -14,-9 -15,-18 -2,-8 2,-17 8,-22 47,-36 71,-81 66,-123 -1,-7 2,-14 7,-19 5,-5 12,-7 18,-7 106,9 137,121 139,186 71,75 16,186 -24,235 -4,5 -11,9 -18,9zm-131 -269c54,28 111,82 141,185 20,-39 35,-95 -7,-133 -4,-4 -7,-11 -7,-17 0,-5 0,-116 -72,-144 -4,39 -23,76 -55,109z"/>
    </g>
    <g>
     <path class="fil0" d="M1123 315c-7,0 -14,-3 -18,-9 -8,-9 -32,-36 -53,-32 -12,3 -25,-5 -27,-18 -3,-13 6,-25 18,-27 53,-11 94,43 99,49 8,11 5,25 -5,33 -4,3 -9,4 -14,4z"/>
    </g>
    <g>
     <path class="fil0" d="M1522 1707l-1338 0c-54,0 -98,-45 -98,-99 0,-54 44,-98 98,-98l1338 0c55,0 99,44 99,98 0,54 -44,99 -99,99zm-1338 -151c-28,0 -52,24 -52,52 0,29 24,52 52,52l1338 0c29,0 52,-23 52,-52 0,-28 -23,-52 -52,-52l-1338 0z"/>
    </g>
    <g>
     <path class="fil0" d="M227 1207c-2,0 -4,0 -6,-1 -12,-3 -19,-16 -16,-29 12,-42 36,-164 2,-222 -50,-86 -4,-240 -2,-246 4,-13 17,-19 29,-16 13,4 20,17 16,29 -12,39 -35,153 -2,210 50,87 4,251 2,258 -3,10 -12,17 -23,17z"/>
    </g>
    <g>
     <path class="fil0" d="M404 897c-2,0 -4,0 -7,-1 -12,-3 -19,-16 -16,-28 12,-43 36,-165 3,-222 -51,-87 -5,-241 -3,-247 4,-12 17,-19 30,-15 12,3 19,16 15,29 -12,38 -35,152 -2,209 50,87 4,251 2,258 -3,11 -12,17 -22,17z"/>
    </g>
    <g>
     <path class="fil0" d="M1479 1207c-10,0 -19,-7 -22,-17 -2,-7 -48,-171 2,-258 33,-57 10,-171 -2,-210 -4,-12 3,-25 15,-29 13,-3 26,3 30,16 2,6 48,160 -3,246 -33,58 -9,180 3,222 3,13 -4,26 -16,29 -3,1 -5,1 -7,1z"/>
    </g>
    <g>
     <path class="fil0" d="M1303 897c-10,0 -20,-6 -23,-17 -2,-7 -47,-171 3,-258 33,-57 9,-171 -2,-209 -4,-13 3,-26 15,-30 12,-3 25,4 29,16 2,6 48,160 -2,247 -33,57 -10,179 2,222 4,12 -3,25 -16,28 -2,1 -4,1 -6,1z"/>
    </g>
    <g>
     <g>
      <path class="fil0" d="M787 569c-8,0 -16,-4 -20,-12 -5,-9 -20,-9 -25,0 -7,12 -21,16 -32,9 -11,-6 -15,-20 -9,-32 11,-19 31,-31 53,-31 22,0 43,12 53,31 7,12 3,26 -8,32 -4,2 -8,3 -12,3z"/>
     </g>
     <g>
      <path class="fil0" d="M985 569c-8,0 -16,-4 -20,-12 -5,-9 -20,-9 -25,0 -6,12 -21,16 -32,9 -11,-6 -15,-20 -9,-32 11,-19 31,-31 53,-31 22,0 43,12 53,31 7,12 3,26 -8,32 -4,2 -8,3 -12,3z"/>
     </g>
     <g>
      <path class="fil0" d="M853 792c-32,0 -63,-17 -79,-46 -6,-11 -2,-25 9,-32 11,-6 26,-2 32,9 8,14 22,23 38,23 16,0 31,-9 39,-23 6,-11 20,-15 32,-9 11,7 15,21 8,32 -16,29 -46,46 -79,46z"/>
     </g>
     <g>
      <path class="fil0" d="M868 676l-29 0c-13,0 -23,-10 -23,-23 0,-13 10,-24 23,-24l29 0c12,0 23,11 23,24 0,13 -11,23 -23,23z"/>
     </g>
    </g>
   </g>
  </g>
 </g>
</svg>
